<?xml version="1.0" encoding="UTF-8"?>
<!DOCTYPE svg PUBLIC "-//W3C//DTD SVG 1.1//EN" "http://www.w3.org/Graphics/SVG/1.1/DTD/svg11.dtd">
<svg xmlns="http://www.w3.org/2000/svg" version="1.1" width="500px" height="500px" style="shape-rendering:geometricPrecision; text-rendering:geometricPrecision; image-rendering:optimizeQuality; fill-rule:evenodd; clip-rule:evenodd" xmlns:xlink="http://www.w3.org/1999/xlink">
<g><path style="opacity:1" fill="#fefefe" d="M -0.5,-0.5 C 166.167,-0.5 332.833,-0.5 499.5,-0.5C 499.5,166.167 499.5,332.833 499.5,499.5C 332.833,499.5 166.167,499.5 -0.5,499.5C -0.5,332.833 -0.5,166.167 -0.5,-0.5 Z"/></g>
<g><path style="opacity:1" fill="#44b852" d="M 228.5,204.5 C 226.983,204.511 225.816,205.177 225,206.5C 221.849,196.968 225.015,190.468 234.5,187C 237.726,185.801 241.059,185.301 244.5,185.5C 246.054,199.307 240.054,206.474 226.5,207C 227.381,206.292 228.047,205.458 228.5,204.5 Z"/></g>
<g><path style="opacity:1" fill="#48b955" d="M 207.5,191.5 C 218.781,191.111 223.781,196.444 222.5,207.5C 211.416,208.079 206.416,202.746 207.5,191.5 Z"/></g>
<g><path style="opacity:1" fill="#aee0b4" d="M 215.5,198.5 C 218.073,199.879 219.573,201.879 220,204.5C 217.873,202.886 216.373,200.886 215.5,198.5 Z"/></g>
<g><path style="opacity:1" fill="#a2dba6" d="M 228.5,204.5 C 231.088,201.012 233.922,197.679 237,194.5C 236.253,196.976 234.919,199.309 233,201.5C 231.871,203.141 230.371,204.141 228.5,204.5 Z"/></g>
<g><path style="opacity:1" fill="#388d51" d="M 27.5,213.5 C 36.156,211.871 42.156,215.037 45.5,223C 45.3333,224.5 44.5,225.333 43,225.5C 40.8577,223.032 38.3577,220.865 35.5,219C 28.4949,217.676 25.9949,220.51 28,227.5C 32.7325,229.857 37.5658,232.023 42.5,234C 46.6807,239.736 46.3474,245.236 41.5,250.5C 29.59,257.883 21.9233,254.716 18.5,241C 18.5336,237.835 19.867,237.002 22.5,238.5C 24,241.5 25.5,244.5 27,247.5C 32.0238,250.284 36.3571,249.284 40,244.5C 40.6667,242.833 40.6667,241.167 40,239.5C 35.7249,236.959 31.2249,234.792 26.5,233C 19.6414,226.028 19.9748,219.528 27.5,213.5 Z"/></g>
<g><path style="opacity:1" fill="#3b8e53" d="M 52.5,213.5 C 54.451,213.227 55.951,213.893 57,215.5C 57.6667,228.167 57.6667,240.833 57,253.5C 55.0624,254.86 53.3957,254.527 52,252.5C 51.187,239.425 51.3537,226.425 52.5,213.5 Z"/></g>
<g><path style="opacity:1" fill="#378c50" d="M 68.5,213.5 C 70.1439,213.286 71.6439,213.62 73,214.5C 75.6882,223.536 79.1882,232.203 83.5,240.5C 86.6344,231.765 89.9677,223.098 93.5,214.5C 95.0064,213.253 96.5064,213.253 98,214.5C 101.522,227.314 103.022,240.314 102.5,253.5C 100.741,254.754 99.2408,254.421 98,252.5C 97.4686,243.78 96.4686,235.113 95,226.5C 91.9396,233.68 89.273,241.014 87,248.5C 85.8988,252.6 83.8988,253.267 81,250.5C 78.3812,243.302 75.3812,236.302 72,229.5C 71.5227,237.516 70.856,245.516 70,253.5C 68.6667,254.833 67.3333,254.833 66,253.5C 65.1098,240.012 65.9432,226.679 68.5,213.5 Z"/></g>
<g><path style="opacity:1" fill="#398d51" d="M 112.5,213.5 C 117.599,213.175 122.599,213.675 127.5,215C 133.025,217.919 134.858,222.419 133,228.5C 132.215,230.286 131.049,231.786 129.5,233C 135.116,238.086 135.949,243.919 132,250.5C 124.986,254.895 117.653,255.562 110,252.5C 109.333,242.833 109.333,233.167 110,223.5C 110.026,219.861 110.86,216.528 112.5,213.5 Z"/></g>
<g><path style="opacity:1" fill="#368c4f" d="M 197.5,213.5 C 203.602,212.733 209.269,213.899 214.5,217C 218.343,219.538 218.343,221.705 214.5,223.5C 211.985,221.838 209.318,220.338 206.5,219C 198.831,217.648 193.997,220.815 192,228.5C 190.488,248.157 198.655,253.824 216.5,245.5C 219.396,246.024 220.063,247.524 218.5,250C 195.162,259.571 184.662,251.738 187,226.5C 189.257,221.085 192.757,216.751 197.5,213.5 Z"/></g>
<g><path style="opacity:1" fill="#2f884a" d="M 224.5,213.5 C 226.144,213.286 227.644,213.62 229,214.5C 229.667,227.5 229.667,240.5 229,253.5C 227.667,254.833 226.333,254.833 225,253.5C 224.5,240.171 224.333,226.837 224.5,213.5 Z"/></g>
<g><path style="opacity:1" fill="#358b4e" d="M 256.5,213.5 C 258.39,213.297 259.89,213.963 261,215.5C 263.746,224.072 267.079,232.406 271,240.5C 274.716,232.024 278.05,223.357 281,214.5C 282.667,213.167 284.333,213.167 286,214.5C 289.433,227.554 290.599,240.721 289.5,254C 287.892,254.658 286.725,254.158 286,252.5C 285.157,244.12 283.991,235.786 282.5,227.5C 279.178,234.964 276.344,242.631 274,250.5C 273.261,251.574 272.261,252.241 271,252.5C 269.181,250.874 267.848,248.874 267,246.5C 264.943,240.719 262.61,235.053 260,229.5C 259.144,237.484 258.477,245.484 258,253.5C 256.667,254.833 255.333,254.833 254,253.5C 253.18,240.017 254.013,226.683 256.5,213.5 Z"/></g>
<g><path style="opacity:1" fill="#368b4f" d="M 312.5,213.5 C 315.238,212.965 317.072,213.965 318,216.5C 321.469,227.241 325.136,237.908 329,248.5C 329.667,250.167 329.667,251.833 329,253.5C 327.951,254.517 326.784,254.684 325.5,254C 323.47,250.411 322.137,246.578 321.5,242.5C 316.511,241.778 311.511,241.612 306.5,242C 304.613,245.659 303.113,249.492 302,253.5C 300.667,254.833 299.333,254.833 298,253.5C 297.599,249.684 298.266,246.017 300,242.5C 304.181,232.807 308.348,223.141 312.5,213.5 Z"/></g>
<g><path style="opacity:1" fill="#338a4d" d="M 341.5,213.5 C 359.422,212.389 364.422,219.723 356.5,235.5C 354.833,236.333 353.167,237.167 351.5,238C 355.698,241.871 358.698,246.538 360.5,252C 359.941,254.188 358.607,254.854 356.5,254C 353.412,247.412 348.746,242.245 342.5,238.5C 341.672,243.132 341.172,247.798 341,252.5C 339.921,254.394 338.587,254.727 337,253.5C 336.333,241.5 336.333,229.5 337,217.5C 338.397,215.93 339.897,214.596 341.5,213.5 Z"/></g>
<g><path style="opacity:1" fill="#3a8d52" d="M 370.5,212.5 C 371.822,212.33 372.989,212.663 374,213.5C 374.172,218.202 374.672,222.868 375.5,227.5C 380.69,223.142 386.023,218.976 391.5,215C 393.925,214.014 395.591,214.681 396.5,217C 390.521,222.637 384.188,227.97 377.5,233C 383.759,238.048 389.926,243.214 396,248.5C 396.833,251.667 395.667,252.833 392.5,252C 386.375,247.544 380.542,242.711 375,237.5C 374.501,242.823 374.334,248.156 374.5,253.5C 372.833,253.5 371.167,253.5 369.5,253.5C 368.596,240.51 368.429,227.51 369,214.5C 369.717,213.956 370.217,213.289 370.5,212.5 Z"/></g>
<g><path style="opacity:1" fill="#30894b" d="M 402.5,213.5 C 411.085,213.183 419.585,213.517 428,214.5C 428.684,215.784 428.517,216.951 427.5,218C 420.508,218.5 413.508,218.666 406.5,218.5C 406.203,222.767 406.536,226.934 407.5,231C 413.5,231.333 419.5,231.667 425.5,232C 426.38,233.356 426.714,234.856 426.5,236.5C 420.167,236.5 413.833,236.5 407.5,236.5C 407.5,240.833 407.5,245.167 407.5,249.5C 414.226,249.795 420.892,249.462 427.5,248.5C 430.823,249.938 431.156,251.771 428.5,254C 420.833,254.667 413.167,254.667 405.5,254C 404.584,253.626 403.75,253.126 403,252.5C 402.679,241.824 402.179,231.157 401.5,220.5C 401.56,218.079 401.893,215.746 402.5,213.5 Z"/></g>
<g><path style="opacity:1" fill="#388c50" d="M 437.5,213.5 C 448.167,213.5 458.833,213.5 469.5,213.5C 469.714,215.144 469.38,216.644 468.5,218C 463.536,218.912 458.536,219.412 453.5,219.5C 453.667,230.838 453.5,242.172 453,253.5C 451.062,254.86 449.396,254.527 448,252.5C 447.5,241.172 447.333,229.838 447.5,218.5C 443.833,218.5 440.167,218.5 436.5,218.5C 436.366,216.708 436.699,215.042 437.5,213.5 Z"/></g>
<g><path style="opacity:1" fill="#7ccc4a" d="M 155.5,215.5 C 157.167,218.167 158.833,220.833 160.5,223.5C 158.19,226.102 156.357,229.102 155,232.5C 153.471,231.271 152.304,229.771 151.5,228C 149.19,227.503 146.857,227.337 144.5,227.5C 146.541,223.259 149.207,219.426 152.5,216C 153.448,215.517 154.448,215.351 155.5,215.5 Z"/></g>
<g><path style="opacity:1" fill="#358b4e" d="M 155.5,215.5 C 159.846,215.334 164.179,215.501 168.5,216C 170.213,217.925 171.547,220.092 172.5,222.5C 173.748,221.96 174.915,221.293 176,220.5C 175.103,223.716 174.269,227.049 173.5,230.5C 172.121,231.609 170.455,232.276 168.5,232.5C 164.827,232.047 161.16,231.547 157.5,231C 159.381,229.898 161.048,228.565 162.5,227C 162.192,225.541 161.525,224.374 160.5,223.5C 158.833,220.833 157.167,218.167 155.5,215.5 Z"/></g>
<g><path style="opacity:1" fill="#f9fcfa" d="M 116.5,218.5 C 122.219,217.359 126.219,219.359 128.5,224.5C 128.24,226.187 127.573,227.687 126.5,229C 123.013,230.622 119.346,231.455 115.5,231.5C 115.231,227.069 115.564,222.735 116.5,218.5 Z"/></g>
<g><path style="opacity:1" fill="#f6faf7" d="M 343.5,218.5 C 347.41,218.263 351.077,219.096 354.5,221C 356.457,231.208 352.124,235.374 341.5,233.5C 341.334,229.154 341.501,224.821 342,220.5C 342.717,219.956 343.217,219.289 343.5,218.5 Z"/></g>
<g><path style="opacity:1" fill="#eef5f0" d="M 313.5,224.5 C 316.312,227.913 317.979,231.913 318.5,236.5C 315.482,236.296 312.482,235.963 309.5,235.5C 310.548,231.736 311.881,228.069 313.5,224.5 Z"/></g>
<g><path style="opacity:1" fill="#378c4f" d="M 148.5,229.5 C 149.496,229.414 150.329,229.748 151,230.5C 152.636,233.606 154.136,236.773 155.5,240C 154.127,241.479 152.627,241.312 151,239.5C 149.331,240.846 148.164,242.513 147.5,244.5C 145.94,246.954 144.94,249.62 144.5,252.5C 140.948,248.4 138.781,243.733 138,238.5C 142.196,236.2 142.362,233.867 138.5,231.5C 141.788,230.555 145.121,229.888 148.5,229.5 Z"/></g>
<g><path style="opacity:1" fill="#f0f7ef" d="M 160.5,223.5 C 161.525,224.374 162.192,225.541 162.5,227C 161.048,228.565 159.381,229.898 157.5,231C 161.16,231.547 164.827,232.047 168.5,232.5C 170.455,232.276 172.121,231.609 173.5,230.5C 173.833,230.5 174.167,230.5 174.5,230.5C 172.637,233.165 169.97,234.665 166.5,235C 168.636,238.11 170.636,241.277 172.5,244.5C 170.5,244.5 168.5,244.5 166.5,244.5C 166.662,242.473 166.495,240.473 166,238.5C 163.667,241.5 161.333,244.5 159,247.5C 158.421,248.928 158.588,250.262 159.5,251.5C 158.833,251.5 158.5,251.833 158.5,252.5C 155.962,249.997 155.962,247.33 158.5,244.5C 158.167,244.167 157.833,243.833 157.5,243.5C 154.242,244.417 150.909,244.751 147.5,244.5C 148.164,242.513 149.331,240.846 151,239.5C 152.627,241.312 154.127,241.479 155.5,240C 154.136,236.773 152.636,233.606 151,230.5C 150.329,229.748 149.496,229.414 148.5,229.5C 147.167,228.833 145.833,228.167 144.5,227.5C 146.857,227.337 149.19,227.503 151.5,228C 152.304,229.771 153.471,231.271 155,232.5C 156.357,229.102 158.19,226.102 160.5,223.5 Z"/></g>
<g><path style="opacity:1" fill="#7ecc4d" d="M 180.5,244.5 C 177.833,244.5 175.167,244.5 172.5,244.5C 170.636,241.277 168.636,238.11 166.5,235C 169.97,234.665 172.637,233.165 174.5,230.5C 175.222,230.082 175.722,229.416 176,228.5C 180.833,233.096 182.333,238.429 180.5,244.5 Z"/></g>
<g><path style="opacity:1" fill="#f7faf8" d="M 114.5,237.5 C 118.182,237.335 121.848,237.501 125.5,238C 130.833,241.333 130.833,244.667 125.5,248C 121.848,248.499 118.182,248.665 114.5,248.5C 114.5,244.833 114.5,241.167 114.5,237.5 Z"/></g>
<g><path style="opacity:1" fill="#338a4d" d="M 172.5,244.5 C 175.167,244.5 177.833,244.5 180.5,244.5C 178.781,248.39 176.448,251.89 173.5,255C 170.808,255.43 168.141,255.263 165.5,254.5C 165.657,255.873 165.49,257.207 165,258.5C 163.334,256.004 161.5,253.671 159.5,251.5C 158.588,250.262 158.421,248.928 159,247.5C 161.333,244.5 163.667,241.5 166,238.5C 166.495,240.473 166.662,242.473 166.5,244.5C 168.5,244.5 170.5,244.5 172.5,244.5 Z"/></g>
<g><path style="opacity:1" fill="#7bcc48" d="M 158.5,252.5 C 158.804,253.15 159.137,253.817 159.5,254.5C 155.541,255.66 151.541,255.827 147.5,255C 146.058,254.623 145.058,253.79 144.5,252.5C 144.94,249.62 145.94,246.954 147.5,244.5C 150.909,244.751 154.242,244.417 157.5,243.5C 157.833,243.833 158.167,244.167 158.5,244.5C 155.962,247.33 155.962,249.997 158.5,252.5 Z"/></g>
<g><path style="opacity:1" fill="#1f1f1f" d="M 57.5,272.5 C 58.7868,273.871 59.4535,275.705 59.5,278C 59.1667,279.833 58.8333,281.667 58.5,283.5C 57.5108,279.893 57.1774,276.226 57.5,272.5 Z"/></g>
<g><path style="opacity:1" fill="#1e1e1e" d="M 90.5,273.5 C 88.8333,273.5 87.1667,273.5 85.5,273.5C 85.5,274.833 85.5,276.167 85.5,277.5C 86.8333,277.5 88.1667,277.5 89.5,277.5C 88.4324,278.434 87.099,278.768 85.5,278.5C 85.5,279.833 85.5,281.167 85.5,282.5C 87.4147,282.216 89.0813,282.549 90.5,283.5C 88.1667,283.5 85.8333,283.5 83.5,283.5C 83.5,279.833 83.5,276.167 83.5,272.5C 86.0593,272.198 88.3926,272.532 90.5,273.5 Z"/></g>
<g><path style="opacity:1" fill="#2a2a2a" d="M 144.5,272.5 C 145.496,272.414 146.329,272.748 147,273.5C 148.333,275.5 149.667,277.5 151,279.5C 151.186,277.1 151.686,274.766 152.5,272.5C 153.833,276.167 153.833,279.833 152.5,283.5C 150.507,281.334 148.673,279.001 147,276.5C 146.814,278.9 146.314,281.234 145.5,283.5C 144.511,279.893 144.177,276.226 144.5,272.5 Z"/></g>
<g><path style="opacity:1" fill="#1b1b1b" d="M 171.5,272.5 C 172.777,273.694 173.444,275.36 173.5,277.5C 173.333,279.167 173.167,280.833 173,282.5C 171.951,283.517 170.784,283.684 169.5,283C 171.362,279.851 172.029,276.351 171.5,272.5 Z"/></g>
<g><path style="opacity:1" fill="#1e1e1e" d="M 184.5,273.5 C 182.833,273.5 181.167,273.5 179.5,273.5C 179.5,274.833 179.5,276.167 179.5,277.5C 180.833,277.5 182.167,277.5 183.5,277.5C 182.432,278.434 181.099,278.768 179.5,278.5C 179.5,279.833 179.5,281.167 179.5,282.5C 181.415,282.216 183.081,282.549 184.5,283.5C 182.167,283.5 179.833,283.5 177.5,283.5C 177.5,279.833 177.5,276.167 177.5,272.5C 180.059,272.198 182.393,272.532 184.5,273.5 Z"/></g>
<g><path style="opacity:1" fill="#060606" d="M 211.5,272.5 C 210.081,273.451 208.415,273.784 206.5,273.5C 206.232,275.099 206.566,276.432 207.5,277.5C 209.099,277.232 210.432,277.566 211.5,278.5C 209.833,278.5 208.167,278.5 206.5,278.5C 206.5,279.833 206.5,281.167 206.5,282.5C 208.415,282.216 210.081,282.549 211.5,283.5C 209.5,283.5 207.5,283.5 205.5,283.5C 205.5,279.833 205.5,276.167 205.5,272.5C 207.5,272.5 209.5,272.5 211.5,272.5 Z"/></g>
<g><path style="opacity:1" fill="#6c6c6c" d="M 211.5,272.5 C 212.043,272.56 212.376,272.893 212.5,273.5C 210.955,274.452 209.288,274.785 207.5,274.5C 207.5,275.5 207.5,276.5 207.5,277.5C 206.566,276.432 206.232,275.099 206.5,273.5C 208.415,273.784 210.081,273.451 211.5,272.5 Z"/></g>
<g><path style="opacity:1" fill="#232323" d="M 311.5,272.5 C 312.5,272.5 313.5,272.5 314.5,272.5C 314.755,275.016 315.589,277.35 317,279.5C 318.045,276.846 319.545,274.512 321.5,272.5C 323.562,275.999 323.895,279.665 322.5,283.5C 321.682,280.893 321.182,278.226 321,275.5C 320.115,278 318.948,280.333 317.5,282.5C 315.545,280.488 314.045,278.154 313,275.5C 312.667,278.167 312.333,280.833 312,283.5C 311.501,279.848 311.335,276.182 311.5,272.5 Z"/></g>
<g><path style="opacity:1" fill="#000000" d="M 351.5,272.5 C 352.451,273.919 352.784,275.585 352.5,277.5C 354.5,277.5 356.5,277.5 358.5,277.5C 359.833,277.833 359.833,278.167 358.5,278.5C 356.5,278.5 354.5,278.5 352.5,278.5C 352.66,280.199 352.494,281.866 352,283.5C 351.501,279.848 351.335,276.182 351.5,272.5 Z"/></g>
<g><path style="opacity:1" fill="#1f1f1f" d="M 380.5,272.5 C 381.787,273.871 382.453,275.705 382.5,278C 382.167,279.833 381.833,281.667 381.5,283.5C 380.511,279.893 380.177,276.226 380.5,272.5 Z"/></g>
<g><path style="opacity:1" fill="#000000" d="M 388.5,272.5 C 388.5,275.833 388.5,279.167 388.5,282.5C 390.099,282.232 391.432,282.566 392.5,283.5C 390.833,283.5 389.167,283.5 387.5,283.5C 387.185,279.629 387.518,275.962 388.5,272.5 Z"/></g>
<g><path style="opacity:1" fill="#7a7a7a" d="M 388.5,272.5 C 389.477,275.287 389.81,278.287 389.5,281.5C 390.978,281.238 392.311,281.571 393.5,282.5C 393.376,283.107 393.043,283.44 392.5,283.5C 391.432,282.566 390.099,282.232 388.5,282.5C 388.5,279.167 388.5,275.833 388.5,272.5 Z"/></g>
<g><path style="opacity:1" fill="#060606" d="M 403.5,272.5 C 402.081,273.451 400.415,273.784 398.5,273.5C 398.232,275.099 398.566,276.432 399.5,277.5C 401.099,277.232 402.432,277.566 403.5,278.5C 401.833,278.5 400.167,278.5 398.5,278.5C 398.5,279.833 398.5,281.167 398.5,282.5C 400.415,282.216 402.081,282.549 403.5,283.5C 401.5,283.5 399.5,283.5 397.5,283.5C 397.5,279.833 397.5,276.167 397.5,272.5C 399.5,272.5 401.5,272.5 403.5,272.5 Z"/></g>
<g><path style="opacity:1" fill="#6c6c6c" d="M 403.5,272.5 C 404.043,272.56 404.376,272.893 404.5,273.5C 402.955,274.452 401.288,274.785 399.5,274.5C 399.5,275.5 399.5,276.5 399.5,277.5C 398.566,276.432 398.232,275.099 398.5,273.5C 400.415,273.784 402.081,273.451 403.5,272.5 Z"/></g>
<g><path style="opacity:1" fill="#242424" d="M 48.5,272.5 C 54.373,272.598 54.7064,273.598 49.5,275.5C 50.3467,276.845 51.5134,277.845 53,278.5C 53.8523,283.254 52.0189,284.588 47.5,282.5C 49.1667,281.833 50.8333,281.167 52.5,280.5C 51.086,279.376 49.586,278.376 48,277.5C 47.3603,275.735 47.5269,274.068 48.5,272.5 Z"/></g>
<g><path style="opacity:1" fill="#3b3b3b" d="M 72.5,272.5 C 75.2469,272.187 77.9135,272.52 80.5,273.5C 79.675,274.386 78.675,274.719 77.5,274.5C 76.8333,286.5 76.1667,286.5 75.5,274.5C 73.8212,274.715 72.8212,274.048 72.5,272.5 Z"/></g>
<g><path style="opacity:1" fill="#272727" d="M 327.5,272.5 C 332.993,271.178 335.493,273.178 335,278.5C 333.416,279.861 331.582,280.528 329.5,280.5C 329.719,281.675 329.386,282.675 328.5,283.5C 327.511,279.893 327.177,276.226 327.5,272.5 Z"/></g>
<g><path style="opacity:1" fill="#f3f3f3" d="M 329.5,274.5 C 330.833,274.5 332.167,274.5 333.5,274.5C 333.833,277.5 332.5,278.833 329.5,278.5C 329.5,277.167 329.5,275.833 329.5,274.5 Z"/></g>
<g><path style="opacity:1" fill="#232323" d="M 410.5,272.5 C 412.977,272.051 414.977,272.717 416.5,274.5C 416.167,274.833 415.833,275.167 415.5,275.5C 413.608,272.956 411.775,272.956 410,275.5C 408.416,280.362 409.916,282.028 414.5,280.5C 411.749,277.945 412.416,276.945 416.5,277.5C 417.247,283.067 414.913,284.9 409.5,283C 406.652,279.107 406.985,275.607 410.5,272.5 Z"/></g>
<g><path style="opacity:1" fill="#222222" d="M 371.5,272.5 C 373.977,272.051 375.977,272.717 377.5,274.5C 377.167,274.833 376.833,275.167 376.5,275.5C 373.162,272.663 371.162,273.496 370.5,278C 370.585,279.107 370.919,280.107 371.5,281C 373.5,281.333 375.5,281.667 377.5,282C 371.288,284.466 368.455,282.299 369,275.5C 370.045,274.627 370.878,273.627 371.5,272.5 Z"/></g>
<g><path style="opacity:1" fill="#9e9e9e" d="M 90.5,273.5 C 89.2825,274.161 87.9492,274.828 86.5,275.5C 87.6016,276.176 88.6016,276.842 89.5,277.5C 88.1667,277.5 86.8333,277.5 85.5,277.5C 85.5,276.167 85.5,274.833 85.5,273.5C 87.1667,273.5 88.8333,273.5 90.5,273.5 Z"/></g>
<g><path style="opacity:1" fill="#9e9e9e" d="M 184.5,273.5 C 183.282,274.161 181.949,274.828 180.5,275.5C 181.602,276.176 182.602,276.842 183.5,277.5C 182.167,277.5 180.833,277.5 179.5,277.5C 179.5,276.167 179.5,274.833 179.5,273.5C 181.167,273.5 182.833,273.5 184.5,273.5 Z"/></g>
<g><path style="opacity:1" fill="#282828" d="M 95.5,272.5 C 96.4959,272.414 97.3292,272.748 98,273.5C 100.01,281.361 101.843,281.361 103.5,273.5C 104.325,272.614 105.325,272.281 106.5,272.5C 106.909,276.264 106.909,279.93 106.5,283.5C 104.985,281.453 104.151,279.119 104,276.5C 101.726,284.466 99.393,284.466 97,276.5C 96.8142,278.9 96.3142,281.234 95.5,283.5C 94.7068,279.88 94.7068,276.213 95.5,272.5 Z"/></g>
<g><path style="opacity:1" fill="#282828" d="M 116.5,272.5 C 117.496,272.414 118.329,272.748 119,273.5C 121.01,281.361 122.843,281.361 124.5,273.5C 125.325,272.614 126.325,272.281 127.5,272.5C 127.909,276.264 127.909,279.93 127.5,283.5C 125.985,281.453 125.151,279.119 125,276.5C 122.726,284.466 120.393,284.466 118,276.5C 117.814,278.9 117.314,281.234 116.5,283.5C 115.707,279.88 115.707,276.213 116.5,272.5 Z"/></g>
<g><path style="opacity:1" fill="#282828" d="M 189.5,272.5 C 190.496,272.414 191.329,272.748 192,273.5C 194.01,281.361 195.843,281.361 197.5,273.5C 198.325,272.614 199.325,272.281 200.5,272.5C 200.909,276.264 200.909,279.93 200.5,283.5C 198.985,281.453 198.151,279.119 198,276.5C 195.726,284.466 193.393,284.466 191,276.5C 190.814,278.9 190.314,281.234 189.5,283.5C 188.707,279.88 188.707,276.213 189.5,272.5 Z"/></g>
<g><path style="opacity:1" fill="#181818" d="M 219.5,277.5 C 219.217,276.711 218.717,276.044 218,275.5C 217.503,278.146 217.336,280.813 217.5,283.5C 214.836,270.81 216.67,269.81 223,280.5C 223.333,277.833 223.667,275.167 224,272.5C 224.667,276.167 224.667,279.833 224,283.5C 221.898,281.905 220.398,279.905 219.5,277.5 Z"/></g>
<g><path style="opacity:1" fill="#282828" d="M 290.5,272.5 C 297.057,273.395 297.057,274.395 290.5,275.5C 291.914,276.624 293.414,277.624 295,278.5C 295.72,280.112 295.554,281.612 294.5,283C 292.272,283.82 290.272,283.487 288.5,282C 290.256,281.798 291.922,281.298 293.5,280.5C 292.135,279.059 290.635,277.726 289,276.5C 288.516,274.807 289.016,273.473 290.5,272.5 Z"/></g>
<g><path style="opacity:1" fill="#1d1d1d" d="M 341.5,272.5 C 342.376,272.369 343.043,272.702 343.5,273.5C 345.396,276.827 346.396,280.16 346.5,283.5C 344.929,280.907 342.596,279.907 339.5,280.5C 339.719,281.675 339.386,282.675 338.5,283.5C 338.167,283.167 337.833,282.833 337.5,282.5C 338.849,279.141 340.182,275.808 341.5,272.5 Z"/></g>
<g><path style="opacity:1" fill="#181818" d="M 437.5,277.5 C 437.217,276.711 436.717,276.044 436,275.5C 435.503,278.146 435.336,280.813 435.5,283.5C 432.836,270.81 434.67,269.81 441,280.5C 441.333,277.833 441.667,275.167 442,272.5C 442.667,276.167 442.667,279.833 442,283.5C 439.898,281.905 438.398,279.905 437.5,277.5 Z"/></g>
<g><path style="opacity:1" fill="#9d9d9d" d="M 89.5,277.5 C 90.0431,277.56 90.3764,277.893 90.5,278.5C 89.1667,279.167 87.8333,279.833 86.5,280.5C 88.1667,281.167 89.8333,281.833 91.5,282.5C 91.3764,283.107 91.0431,283.44 90.5,283.5C 89.0813,282.549 87.4147,282.216 85.5,282.5C 85.5,281.167 85.5,279.833 85.5,278.5C 87.099,278.768 88.4324,278.434 89.5,277.5 Z"/></g>
<g><path style="opacity:1" fill="#9d9d9d" d="M 183.5,277.5 C 184.043,277.56 184.376,277.893 184.5,278.5C 183.167,279.167 181.833,279.833 180.5,280.5C 182.167,281.167 183.833,281.833 185.5,282.5C 185.376,283.107 185.043,283.44 184.5,283.5C 183.081,282.549 181.415,282.216 179.5,282.5C 179.5,281.167 179.5,279.833 179.5,278.5C 181.099,278.768 182.432,278.434 183.5,277.5 Z"/></g>
<g><path style="opacity:1" fill="#919191" d="M 219.5,277.5 C 218.833,279.5 218.167,281.5 217.5,283.5C 217.336,280.813 217.503,278.146 218,275.5C 218.717,276.044 219.217,276.711 219.5,277.5 Z"/></g>
<g><path style="opacity:1" fill="#292929" d="M 259.5,272.5 C 262.117,274.288 264.284,276.622 266,279.5C 266.186,277.1 266.686,274.766 267.5,272.5C 268.833,276.167 268.833,279.833 267.5,283.5C 265.443,281.731 263.61,279.731 262,277.5C 261.808,279.577 261.308,281.577 260.5,283.5C 259.511,279.893 259.177,276.226 259.5,272.5 Z"/></g>
<g><path style="opacity:1" fill="#c4c4c4" d="M 341.5,275.5 C 343.176,276.183 343.843,277.517 343.5,279.5C 342.325,279.719 341.325,279.386 340.5,278.5C 341.127,277.583 341.461,276.583 341.5,275.5 Z"/></g>
<g><path style="opacity:1" fill="#919191" d="M 437.5,277.5 C 436.833,279.5 436.167,281.5 435.5,283.5C 435.336,280.813 435.503,278.146 436,275.5C 436.717,276.044 437.217,276.711 437.5,277.5 Z"/></g>
<g><path style="opacity:1" fill="#1b1b1b" d="M 134.5,272.5 C 135.496,272.414 136.329,272.748 137,273.5C 139.036,276.602 140.036,279.935 140,283.5C 137.333,279.5 134.667,279.5 132,283.5C 132.293,279.771 133.126,276.104 134.5,272.5 Z"/></g>
<g><path style="opacity:1" fill="#dadada" d="M 135.5,275.5 C 138.459,278.271 138.126,279.271 134.5,278.5C 135.127,277.583 135.461,276.583 135.5,275.5 Z"/></g>
<g><path style="opacity:1" fill="#1b1b1b" d="M 160.5,272.5 C 161.496,272.414 162.329,272.748 163,273.5C 165.036,276.602 166.036,279.935 166,283.5C 163.333,279.5 160.667,279.5 158,283.5C 158.293,279.771 159.126,276.104 160.5,272.5 Z"/></g>
<g><path style="opacity:1" fill="#dadada" d="M 161.5,275.5 C 164.459,278.271 164.126,279.271 160.5,278.5C 161.127,277.583 161.461,276.583 161.5,275.5 Z"/></g>
<g><path style="opacity:1" fill="#1b1b1b" d="M 249.5,272.5 C 250.496,272.414 251.329,272.748 252,273.5C 254.036,276.602 255.036,279.935 255,283.5C 252.333,279.5 249.667,279.5 247,283.5C 247.293,279.771 248.126,276.104 249.5,272.5 Z"/></g>
<g><path style="opacity:1" fill="#dadada" d="M 250.5,275.5 C 253.459,278.271 253.126,279.271 249.5,278.5C 250.127,277.583 250.461,276.583 250.5,275.5 Z"/></g>
<g><path style="opacity:1" fill="#2e2e2e" d="M 278.5,272.5 C 279.376,272.369 280.043,272.702 280.5,273.5C 276.384,277.024 276.717,280.19 281.5,283C 278.317,283.342 276.317,281.842 275.5,278.5C 276.513,276.473 277.513,274.473 278.5,272.5 Z"/></g>
<g><path style="opacity:1" fill="#1b1b1b" d="M 301.5,272.5 C 302.496,272.414 303.329,272.748 304,273.5C 306.036,276.602 307.036,279.935 307,283.5C 304.333,279.5 301.667,279.5 299,283.5C 299.293,279.771 300.126,276.104 301.5,272.5 Z"/></g>
<g><path style="opacity:1" fill="#dadada" d="M 302.5,275.5 C 305.459,278.271 305.126,279.271 301.5,278.5C 302.127,277.583 302.461,276.583 302.5,275.5 Z"/></g>
<g><path style="opacity:1" fill="#7c7c7c" d="M 211.5,278.5 C 210.282,279.161 208.949,279.828 207.5,280.5C 209.167,281.167 210.833,281.833 212.5,282.5C 212.376,283.107 212.043,283.44 211.5,283.5C 210.081,282.549 208.415,282.216 206.5,282.5C 206.5,281.167 206.5,279.833 206.5,278.5C 208.167,278.5 209.833,278.5 211.5,278.5 Z"/></g>
<g><path style="opacity:1" fill="#313131" d="M 234.5,272.5 C 236.92,272.292 239.253,272.626 241.5,273.5C 242.645,274.776 242.645,276.109 241.5,277.5C 244.044,279.392 244.044,281.225 241.5,283C 239.19,283.497 236.857,283.663 234.5,283.5C 234.5,279.833 234.5,276.167 234.5,272.5 Z"/></g>
<g><path style="opacity:1" fill="#dfdfdf" d="M 236.5,278.5 C 238.665,278.116 240.332,278.783 241.5,280.5C 239.955,281.452 238.288,281.785 236.5,281.5C 236.5,280.5 236.5,279.5 236.5,278.5 Z"/></g>
<g><path style="opacity:1" fill="#c4c4c4" d="M 236.5,274.5 C 237.978,274.238 239.311,274.571 240.5,275.5C 239.68,277.111 238.346,277.778 236.5,277.5C 236.5,276.5 236.5,275.5 236.5,274.5 Z"/></g>
<g><path style="opacity:1" fill="#7c7c7c" d="M 403.5,278.5 C 402.282,279.161 400.949,279.828 399.5,280.5C 401.167,281.167 402.833,281.833 404.5,282.5C 404.376,283.107 404.043,283.44 403.5,283.5C 402.081,282.549 400.415,282.216 398.5,282.5C 398.5,281.167 398.5,279.833 398.5,278.5C 400.167,278.5 401.833,278.5 403.5,278.5 Z"/></g>
<g><path style="opacity:1" fill="#1c1c1c" d="M 422.5,272.5 C 428.665,271.829 431.165,274.496 430,280.5C 427.294,283.978 424.294,284.311 421,281.5C 420.068,278.177 420.568,275.177 422.5,272.5 Z"/></g>
<g><path style="opacity:1" fill="#e7e7e7" d="M 422.5,274.5 C 428.158,273.679 429.825,275.846 427.5,281C 421.741,282.139 420.074,279.972 422.5,274.5 Z"/></g>
<g><path style="opacity:1" fill="#1f1f1f" d="M 64.5,272.5 C 70.373,272.598 70.7064,273.598 65.5,275.5C 66.8651,276.941 68.3651,278.274 70,279.5C 70.658,281.108 70.158,282.275 68.5,283C 61.92,283.103 61.92,282.27 68.5,280.5C 67.1349,279.059 65.6349,277.726 64,276.5C 63.4209,275.072 63.5876,273.738 64.5,272.5 Z"/></g>
</svg>
