<?xml version="1.0" encoding="UTF-8"?>
<svg version="1.1" xmlns="http://www.w3.org/2000/svg" width="500" height="500">
<path d="M0 0 C0.99 0 1.98 0 3 0 C4.24300039 7.55361773 4.0735407 14.98881931 3.875 22.625 C3.8646875 23.92179687 3.854375 25.21859375 3.84375 26.5546875 C3.56031112 37.15094105 3.56031112 37.15094105 0.6328125 40.7109375 C-0.23601562 41.46632812 -1.10484375 42.22171875 -2 43 C-3.00647419 43.99348362 -4.00801127 44.9920524 -5 46 C-4.25862289 46.72583282 -3.51724579 47.45166565 -2.75340271 48.19949341 C4.22588488 55.03697319 11.18668628 61.89279183 18.12974644 68.76706123 C21.70000404 72.30076378 25.27648833 75.82765291 28.86791992 79.33984375 C32.33266504 82.72861517 35.78010252 86.13412937 39.21613884 89.55199814 C40.53100768 90.85391774 41.85202959 92.14965282 43.17917061 93.43906021 C45.03521835 95.24439934 46.86829447 97.07036669 48.69750977 98.90283203 C49.25279861 99.43295395 49.80808746 99.96307587 50.38020325 100.50926208 C52.94872177 103.12770573 53.99205265 104.44839163 54.04579163 108.17829895 C52.9182858 111.22047705 52.11175385 112.30086582 49.56982422 114.24438477 C44.30945201 118.51481245 39.63990369 123.27183574 34.8828125 128.08984375 C33.93533882 129.04427892 32.98748626 129.99833811 32.03927612 130.95204163 C28.0485082 134.96705165 24.06373221 138.98797236 20.08300781 143.01293945 C17.63357292 145.48907912 15.17934973 147.96038722 12.7220726 150.42874336 C11.33676614 151.82328047 9.95705712 153.22337073 8.5774231 154.6235199 C7.74250336 155.46181839 6.90758362 156.30011688 6.04736328 157.16381836 C5.31204376 157.90659531 4.57672424 158.64937225 3.81912231 159.41465759 C2 161 2 161 0 161 C-0.35010132 161.83688354 -0.35010132 161.83688354 -0.70727539 162.69067383 C-2.32892332 165.58758937 -4.33883022 167.59823392 -6.68359375 169.94921875 C-7.61107422 170.87927734 -8.53855469 171.80933594 -9.49414062 172.76757812 C-10.21887573 173.48602905 -10.21887573 173.48602905 -10.95825195 174.21899414 C-12.43613438 175.68614429 -13.90301766 177.16368705 -15.36914062 178.64257812 C-16.29791016 179.56876953 -17.22667969 180.49496094 -18.18359375 181.44921875 C-19.03493896 182.29830811 -19.88628418 183.14739746 -20.76342773 184.0222168 C-23 186 -23 186 -26 187 C-28.83212598 184.16787402 -27.50456397 174.58721452 -27.56982422 170.61083984 C-27.60631554 168.88412238 -27.66071726 167.1576813 -27.73388672 165.43212891 C-28.33315162 151.08014883 -28.33315162 151.08014883 -24.95214844 145.8046875 C-22.74385928 143.59553268 -20.59353292 141.73292493 -18 140 C-23.48445122 133.32784074 -29.56563815 127.28868863 -35.671875 121.1953125 C-36.80208685 120.06442602 -37.93215031 118.93339122 -39.06207275 117.80221558 C-41.41720345 115.44561838 -43.77411396 113.09082009 -46.13232422 110.73730469 C-49.15764643 107.71771206 -52.17841271 104.69360758 -55.19788742 101.66816902 C-57.52430043 99.33814997 -59.85308052 97.01050853 -62.1825943 94.68358994 C-63.29812301 93.56872868 -64.41290833 92.45312308 -65.52693939 91.33676529 C-67.0777316 89.78344234 -68.63167749 88.2333458 -70.18652344 86.68408203 C-71.06999451 85.80140656 -71.95346558 84.91873108 -72.8637085 84.00930786 C-74.83427828 81.96326333 -74.83427828 81.96326333 -77 81 C-76.41625334 77.67706943 -75.42067123 76.04906625 -73.03918457 73.68515015 C-72.40819351 73.05148026 -71.77720245 72.41781036 -71.12709045 71.76493835 C-70.43095139 71.08115616 -69.73481232 70.39737396 -69.01757812 69.69287109 C-67.92249184 68.59953712 -67.92249184 68.59953712 -66.80528259 67.4841156 C-64.38749472 65.07352282 -61.95937094 62.67361793 -59.53125 60.2734375 C-57.85283271 58.60315398 -56.17514831 56.9321337 -54.49816895 55.26040649 C-50.07934191 50.85871407 -45.65202598 46.46566357 -41.22247314 42.07476807 C-34.12958939 35.04103806 -27.04932402 27.99461131 -19.96958923 20.94765091 C-17.48994668 18.48201445 -15.0065525 16.02020586 -12.52258301 13.55892944 C-11.00911495 12.05548113 -9.49572367 10.55195551 -7.98242188 9.04833984 C-7.28628281 8.36050919 -6.59014374 7.67267853 -5.87290955 6.96400452 C-5.24191849 6.33597427 -4.61092743 5.70794403 -3.96081543 5.06088257 C-3.40996025 4.51484564 -2.85910507 3.96880871 -2.29155731 3.4062252 C-0.8902194 2.01015178 -0.8902194 2.01015178 0 0 Z M-26 65 C-27.37562854 66.28965176 -28.70766393 67.62689293 -30 69 C-30 69.66 -30 70.32 -30 71 C-30.59296875 71.25523437 -31.1859375 71.51046875 -31.796875 71.7734375 C-34.21224538 73.11816498 -35.51211706 74.49214367 -37.25 76.625 C-37.77078125 77.25664062 -38.2915625 77.88828125 -38.828125 78.5390625 C-39.21484375 79.02117187 -39.6015625 79.50328125 -40 80 C-34.86848988 85.24725729 -29.7236223 90.48101843 -24.56119156 95.6978693 C-22.16458129 98.12059605 -19.77285081 100.54776171 -17.39160156 102.9855957 C-14.65509685 105.78671672 -11.89854901 108.56761482 -9.140625 111.34765625 C-8.28631897 112.22776871 -7.43201294 113.10788116 -6.55181885 114.0146637 C-5.35102692 115.21602211 -5.35102692 115.21602211 -4.12597656 116.44165039 C-3.42426331 117.15446671 -2.72255005 117.86728302 -1.99957275 118.60169983 C-0.10851351 120.24505728 -0.10851351 120.24505728 2.16064453 119.79833984 C4.24673322 118.89290979 5.43623744 117.90823307 7.015625 116.27734375 C7.54414062 115.73916016 8.07265625 115.20097656 8.6171875 114.64648438 C9.15601563 114.08251953 9.69484375 113.51855469 10.25 112.9375 C10.80429688 112.36966797 11.35859375 111.80183594 11.9296875 111.21679688 C13.29334214 109.81787531 14.64760417 108.40980886 16 107 C11.63900261 101.79074885 7.06436308 96.90419481 2.265625 92.09765625 C1.18677032 91.01380898 1.18677032 91.01380898 0.08612061 89.9080658 C-1.42190926 88.39500615 -2.93126687 86.88326876 -4.44189453 85.37280273 C-6.76232766 83.05016061 -9.07462139 80.71960854 -11.38671875 78.38867188 C-12.85628191 76.91617855 -14.32631705 75.44415609 -15.796875 73.97265625 C-16.48956482 73.27278091 -17.18225464 72.57290558 -17.89593506 71.8518219 C-18.53710266 71.21373093 -19.17827026 70.57563995 -19.83886719 69.91821289 C-20.40257019 69.35308487 -20.96627319 68.78795685 -21.54705811 68.20570374 C-22.94183812 66.78713508 -22.94183812 66.78713508 -25 67 C-25.33 66.34 -25.66 65.68 -26 65 Z " fill="#ED953C" transform="translate(98,166)"/>
<path d="M0 0 C4.95 0 9.9 0 15 0 C15.33 7.92 15.66 15.84 16 24 C17.753125 21.669375 19.50625 19.33875 21.3125 16.9375 C21.85946533 16.21812256 22.40643066 15.49874512 22.9699707 14.75756836 C25.27887042 11.64726739 27.23289974 8.73951366 28.66796875 5.12890625 C30 2 30 2 33 0 C34.99291992 -0.22705078 34.99291992 -0.22705078 37.23046875 -0.1953125 C38.43413086 -0.18564453 38.43413086 -0.18564453 39.66210938 -0.17578125 C40.49548828 -0.15902344 41.32886719 -0.14226562 42.1875 -0.125 C43.4549707 -0.11146484 43.4549707 -0.11146484 44.74804688 -0.09765625 C46.83215243 -0.07410703 48.91611217 -0.03823647 51 0 C50.67 1.65 50.34 3.3 50 5 C49.34 5 48.68 5 48 5 C47.773125 5.66 47.54625 6.32 47.3125 7 C45.6121185 10.88658628 43.60376916 14.63679817 41 18 C40.34 18 39.68 18 39 18 C38.67 19.32 38.34 20.64 38 22 C37.34 22 36.68 22 36 22 C35.30562253 23.99054876 34.64389782 25.99255385 34 28 C33.71125 28.845625 33.4225 29.69125 33.125 30.5625 C32.94147062 34.14132291 34.65704153 35.39671281 37 38 C37.45375 38.763125 37.9075 39.52625 38.375 40.3125 C40.21080503 43.34863908 42.29164072 46.10788255 44.4375 48.9296875 C46.6869258 51.91017668 48.84173088 54.95303183 51 58 C51.66 56.68 52.32 55.36 53 54 C53.66 54 54.32 54 55 54 C55.17015625 53.41734375 55.3403125 52.8346875 55.515625 52.234375 C56.97845336 47.28565779 58.49080131 42.35273747 60.0625 37.4375 C60.38347656 36.42558594 60.70445312 35.41367188 61.03515625 34.37109375 C62 32 62 32 64 31 C64.39589265 29.34707595 64.71827224 27.67616179 65 26 C65.45471817 24.24348866 65.93387445 22.49311847 66.4375 20.75 C66.68371094 19.87859375 66.92992187 19.0071875 67.18359375 18.109375 C68 16 68 16 70 15 C70 13.68 70 12.36 70 11 C70.66 11 71.32 11 72 11 C71.938125 10.29875 71.87625 9.5975 71.8125 8.875 C72 6 72 6 75 0 C79.95 0 84.9 0 90 0 C92.5 6 95 12 97.5 18 C98.08491211 19.40330566 98.08491211 19.40330566 98.68164062 20.83496094 C99.50574054 22.81341117 100.32903538 24.79219716 101.15112305 26.77148438 C103.30402696 31.9509993 105.4739082 37.12234598 107.67578125 42.28125 C108.5546875 44.35416667 109.43359375 46.42708333 110.3125 48.5 C110.76689453 49.55703125 111.22128906 50.6140625 111.68945312 51.703125 C112.11806641 52.71890625 112.54667969 53.7346875 112.98828125 54.78125 C113.37540283 55.68939453 113.76252441 56.59753906 114.16137695 57.53320312 C115 60 115 60 115 64 C106.585 64.495 106.585 64.495 98 65 C95 56.375 95 56.375 95 53 C87.08 53 79.16 53 71 53 C71 54.65 71 56.3 71 58 C70.34 58 69.68 58 69 58 C68.01 60.97 68.01 60.97 67 64 C61.39765094 65.20318906 55.94465425 65.07790225 50.25 65 C48.35943144 64.97455493 46.46879708 64.95350005 44.578125 64.9375 C43.74700195 64.92589844 42.91587891 64.91429687 42.05957031 64.90234375 C39.93510779 64.86396723 39.93510779 64.86396723 38 66 C38 65.34 38 64.68 38 64 C37.38125 63.855625 36.7625 63.71125 36.125 63.5625 C34 63 34 63 32 62 C31.08077973 60.39987582 30.16640102 58.79676525 29.27734375 57.1796875 C26.35779493 52.19770511 23.09115941 47.09115941 19 43 C18.375 40.875 18.375 40.875 18 39 C17.34 39 16.68 39 16 39 C16 46.92 16 54.84 16 63 C12.33286823 64.83356588 11.25243203 65.2585055 7.4375 65.1875 C6.67308594 65.18105469 5.90867187 65.17460937 5.12109375 65.16796875 C3 65 3 65 0 64 C0 42.88 0 21.76 0 0 Z M82 22 C81.81824219 22.556875 81.63648438 23.11375 81.44921875 23.6875 C79.75137815 28.84196991 77.93577765 33.93010615 76 39 C80.29 39 84.58 39 89 39 C88.27511624 36.10046497 87.49765531 33.32969274 86.5625 30.5 C86.31628906 29.7471875 86.07007813 28.994375 85.81640625 28.21875 C85.01847414 26.05020724 84.07324109 24.04426873 83 22 C82.67 22 82.34 22 82 22 Z " fill="#326869" transform="translate(368,210)"/>
<path d="M0 0 C5.28 0 10.56 0 16 0 C18.18761479 4.37522959 19.46679695 7.19898656 20.5 11.75 C21.99735533 20.98655262 21.99735533 20.98655262 26 29 C26.04080783 30.99958364 26.04254356 33.00045254 26 35 C29.077474 34.35359354 29.077474 34.35359354 29.9921875 32.171875 C30.28351563 31.37265625 30.57484375 30.5734375 30.875 29.75 C31.21273437 28.84765625 31.55046875 27.9453125 31.8984375 27.015625 C32.26195312 26.02046875 32.62546875 25.0253125 33 24 C33.83014355 21.83210919 34.66357277 19.66547417 35.5 17.5 C35.91636719 16.41332031 36.33273437 15.32664063 36.76171875 14.20703125 C38.46778438 9.78848272 40.22556815 5.391471 42 1 C45.375 0.875 45.375 0.875 49 1 C51.6999209 3.6999209 52.55352855 6.85109829 53.8125 10.375 C56.03843341 16.46612543 58.3880312 22.47779352 60.921875 28.44921875 C61.98053382 30.95394415 62.99797244 33.47215774 64 36 C67.10196501 29.49158262 68.81199002 22.71011459 70.625 15.75 C71.24152441 13.41128343 71.85868186 11.07273362 72.4765625 8.734375 C72.74549316 7.70538086 73.01442383 6.67638672 73.29150391 5.61621094 C73.80299463 3.72746711 74.3812128 1.85636161 75 0 C80.28 0 85.56 0 91 0 C92.07430958 4.29723832 91.70016044 4.97172806 89.9453125 8.734375 C88.05530085 13.26415499 86.92084338 18.05944829 85.61523438 22.78369141 C84.40817894 27.13196491 83.17192696 31.47193521 81.9375 35.8125 C81.69217529 36.68342285 81.44685059 37.5543457 81.1940918 38.45166016 C79.80040181 43.35920327 78.29541013 48.20753102 76.65405273 53.0378418 C76.12767417 54.6169775 75.65133521 56.21274711 75.19140625 57.8125 C74.98386719 58.534375 74.77632813 59.25625 74.5625 60 C74.35753906 60.7425 74.15257812 61.485 73.94140625 62.25 C73 64 73 64 71.2109375 64.73828125 C66.87327558 65.25175006 63.18730045 65.43008564 59 64 C57.56347656 62.08764648 57.56347656 62.08764648 56.453125 59.62109375 C56.04199463 58.71818604 55.63086426 57.81527832 55.20727539 56.88500977 C53.26739852 52.24931209 51.43162114 47.58776756 49.6875 42.875 C49.32849609 41.91851562 48.96949219 40.96203125 48.59960938 39.9765625 C47.72820246 37.65281074 46.86175359 35.32734495 46 33 C45.67386719 33.9178125 45.34773438 34.835625 45.01171875 35.78125 C43.67943621 39.52264521 42.34165465 43.26195618 41 47 C40.71640625 47.79019531 40.4328125 48.58039063 40.140625 49.39453125 C38.3163262 54.37081297 36.1863522 59.17494688 34 64 C28.72 64 23.44 64 18 64 C17.67 61.69 17.34 59.38 17 57 C16.52836959 55.18337601 16.012037 53.37770793 15.44946289 51.5871582 C15.13566177 50.57953934 14.82186066 49.57192047 14.49855042 48.5337677 C14.16000534 47.46688217 13.82146027 46.39999664 13.47265625 45.30078125 C13.12367783 44.18817429 12.7746994 43.07556732 12.41514587 41.929245 C11.67886484 39.58604291 10.93992354 37.24367528 10.19848633 34.90209961 C9.06372699 31.31637717 7.93845852 27.72777802 6.81445312 24.13867188 C6.0969137 21.85919879 5.37883328 19.57989592 4.66015625 17.30078125 C4.32363541 16.22782303 3.98711456 15.15486481 3.64039612 14.0493927 C3.1649662 12.55214912 3.1649662 12.55214912 2.67993164 11.0246582 C2.40315079 10.14864456 2.12636993 9.27263092 1.84120178 8.37007141 C1.05894583 5.98017177 1.05894583 5.98017177 -0.16749573 3.81095886 C-0.57958534 2.91453423 -0.57958534 2.91453423 -1 2 C-0.67 1.34 -0.34 0.68 0 0 Z " fill="#376B6C" transform="translate(270,210)"/>
<path d="M0 0 C2.44358638 31.88477433 2.44358638 31.88477433 -3.15234375 39.234375 C-5.57507228 41.7391246 -8.18422998 43.74935609 -11.03515625 45.7421875 C-12.01355469 46.48726562 -12.99195313 47.23234375 -14 48 C-13.8971636 50.71431284 -13.16128642 51.82537199 -11.32322693 53.81547546 C-10.59708694 54.43541885 -9.87094696 55.05536224 -9.12280273 55.6940918 C-8.30223389 56.40924957 -7.48166504 57.12440735 -6.63623047 57.86123657 C-5.74436035 58.63277069 -4.85249023 59.40430481 -3.93359375 60.19921875 C29.91935589 90.53948676 29.91935589 90.53948676 30.86839294 105.3974762 C30.90582689 112.37911785 29.83993524 119.27336248 28 126 C23.1032076 121.89300732 18.49333764 117.62924728 13.99487305 113.0925293 C13.33382065 112.43001663 12.67276825 111.76750397 11.99168396 111.08491516 C10.56923251 109.6586829 9.14793653 108.23129744 7.72769737 106.80286217 C5.48164964 104.54397779 3.23242855 102.2882964 0.9823761 100.03340149 C-3.78540245 95.25424075 -8.54922348 90.47114725 -13.3125 85.6875 C-18.85067357 80.1257367 -24.39045135 74.56559119 -29.93443871 69.00962257 C-32.15343234 66.78413308 -34.36940174 64.55566159 -36.58528137 62.32707214 C-37.93732243 60.97140077 -39.28950284 59.61586836 -40.6418457 58.26049805 C-41.25950806 57.63766937 -41.87717041 57.0148407 -42.5135498 56.37313843 C-45.47151431 53.31208033 -45.47151431 53.31208033 -49 51 C-48.46446771 46.93540613 -46.43526125 45.06630503 -43.58789062 42.23144531 C-42.9024543 41.54294243 -42.9024543 41.54294243 -42.20317078 40.8405304 C-40.69468185 39.32903925 -39.17574106 37.82854888 -37.65625 36.328125 C-36.60574103 35.28067392 -35.55582204 34.23263083 -34.50646973 33.184021 C-32.30848234 30.99063269 -30.10567917 28.80224394 -27.89892578 26.61767578 C-25.06385381 23.81095555 -22.23759631 20.99556516 -19.41443634 18.17686844 C-17.24802063 16.01459885 -15.07878792 13.85517569 -12.90849304 11.69680023 C-11.86497521 10.65899622 -10.82193535 9.62071137 -9.77937317 8.58194733 C-8.32624022 7.13565158 -6.86927371 5.69321055 -5.41210938 4.25097656 C-4.58239624 3.42809143 -3.75268311 2.6052063 -2.89782715 1.75738525 C-1 0 -1 0 0 0 Z " fill="#1C5757" transform="translate(72,196)"/>
<path d="M0 0 C1.50126829 -0.05601747 3.0015048 -0.14296463 4.5 -0.25 C11.82489591 -0.32518222 18.16286201 2.50061653 23.625 7.3125 C25.46150315 10.90202888 25.59958372 13.99583718 26 18 C26.66 18.33 27.32 18.66 28 19 C27.34 20.32 26.68 21.64 26 23 C21.38 23 16.76 23 12 23 C11.01 21.02 10.02 19.04 9 17 C6.59454362 15.79727181 5.05003047 15.89928528 2.375 15.9375 C1.55773437 15.94652344 0.74046875 15.95554688 -0.1015625 15.96484375 C-0.72804687 15.97644531 -1.35453125 15.98804688 -2 16 C-2.99 18.475 -2.99 18.475 -4 21 C0.68873057 23.83791587 4.5729651 24.42736599 9.92578125 24.69140625 C10.61027344 24.79324219 11.29476562 24.89507812 12 25 C12.495 25.99 12.495 25.99 13 27 C14.98559792 27.72442394 14.98559792 27.72442394 17.3125 28.3125 C21.59927943 29.65977353 23.60434763 31.07113012 26 35 C26.391875 35.598125 26.78375 36.19625 27.1875 36.8125 C29.88290416 44.06935735 29.11651111 50.96311578 26 58 C25.01 58.33 24.02 58.66 23 59 C22.67 59.99 22.34 60.98 22 62 C14.49796651 66.95578522 5.91873637 67.61633433 -2.75 66.3125 C-10.24405275 64.71869442 -14.56870054 61.03149093 -19 55 C-21.17532048 50.9601191 -21.17829772 47.54659194 -21 43 C-18.67377689 42.62020847 -16.33824592 42.29692012 -14 42 C-12.205625 41.7525 -12.205625 41.7525 -10.375 41.5 C-7 42 -7 42 -5.5546875 43.52734375 C-4.25 45.4375 -4.25 45.4375 -3.140625 47.37109375 C-2.01210788 49.32691831 -2.01210788 49.32691831 1 50 C1 50.66 1 51.32 1 52 C6.30247909 50.96840514 6.30247909 50.96840514 11.0625 48.625 C12.17334568 47.02819218 12.17334568 47.02819218 11.94140625 45.03125 C11.13445891 42.70541331 11.13445891 42.70541331 8.3046875 41.8046875 C7.17289063 41.49789062 6.04109375 41.19109375 4.875 40.875 C3.69292969 40.53984375 2.51085937 40.2046875 1.29296875 39.859375 C-1.066048 39.24373599 -3.43625396 38.67036794 -5.8125 38.125 C-11.325066 36.17938847 -15.51464778 32.99594204 -19 28.3125 C-20.77351004 22.43774798 -20.40835266 16.70533638 -19.5 10.6875 C-16.20207565 4.77871886 -6.86603617 -2.28867872 0 0 Z " fill="#326768" transform="translate(241,209)"/>
<path d="M0 0 C12.87 0 25.74 0 39 0 C39.84046417 3.36185666 40.13504864 5.78603588 40.125 9.1875 C40.12886719 10.50814453 40.12886719 10.50814453 40.1328125 11.85546875 C40 14 40 14 39 15 C37.29227642 15.08713831 35.58101351 15.10700007 33.87109375 15.09765625 C32.31938477 15.09282227 32.31938477 15.09282227 30.73632812 15.08789062 C29.64771484 15.07951172 28.55910156 15.07113281 27.4375 15.0625 C25.7987793 15.05573242 25.7987793 15.05573242 24.12695312 15.04882812 C21.41791505 15.03699826 18.70898401 15.02051543 16 15 C16 17.97 16 20.94 16 24 C22.93 24.33 29.86 24.66 37 25 C38.125 36.75 38.125 36.75 37 39 C26.605 39.495 26.605 39.495 16 40 C16 42.97 16 45.94 16 49 C16.68626465 48.99476318 17.3725293 48.98952637 18.07958984 48.98413086 C21.17805064 48.96339044 24.27649686 48.95034924 27.375 48.9375 C28.45523438 48.92912109 29.53546875 48.92074219 30.6484375 48.91210938 C31.6796875 48.90888672 32.7109375 48.90566406 33.7734375 48.90234375 C34.72653809 48.89710693 35.67963867 48.89187012 36.66162109 48.88647461 C39 49 39 49 41 50 C41.02685938 52.14576637 41.04633088 54.29162645 41.0625 56.4375 C41.07410156 57.63246094 41.08570313 58.82742188 41.09765625 60.05859375 C41 63 41 63 40 64 C37.04316769 64.08867636 34.10914786 64.11527527 31.15234375 64.09765625 C29.97436218 64.09614563 29.97436218 64.09614563 28.77258301 64.09460449 C25.82754057 64.08935638 22.88251888 64.07539523 19.9375 64.0625 C13.358125 64.041875 6.77875 64.02125 0 64 C0 42.88 0 21.76 0 0 Z " fill="#215A5B" transform="translate(174,210)"/>
<path d="M0 0 C1.17046875 0.03609375 2.3409375 0.0721875 3.546875 0.109375 C4.43890625 0.15578125 5.3309375 0.2021875 6.25 0.25 C8.89119835 5.14110806 10.92476259 9.99467248 12.75 15.25 C14.06861054 19.04502546 15.35538504 22.70523652 17.25 26.25 C19.70734049 30.85874702 21.24436507 35.78248486 22.94921875 40.70703125 C24.47118288 44.85244107 26.28055635 48.79289895 28.234375 52.75 C29.25 55.25 29.25 55.25 30.25 61.25 C25.63 61.25 21.01 61.25 16.25 61.25 C14.27 55.805 14.27 55.805 12.25 50.25 C4 49.92 -4.25 49.59 -12.75 49.25 C-13.74 52.88 -14.73 56.51 -15.75 60.25 C-20.04 60.25 -24.33 60.25 -28.75 60.25 C-27.43266928 52.34601568 -25.72572346 44.86726415 -23.25 37.25 C-23.03633789 36.578479 -22.82267578 35.90695801 -22.60253906 35.21508789 C-22.04425229 33.53915228 -21.40316486 31.89128607 -20.75 30.25 C-20.09 29.92 -19.43 29.59 -18.75 29.25 C-18.35410735 27.59707595 -18.03172776 25.92616179 -17.75 24.25 C-17.29528183 22.49348866 -16.81612555 20.74311847 -16.3125 19 C-16.06628906 18.12859375 -15.82007813 17.2571875 -15.56640625 16.359375 C-14.75 14.25 -14.75 14.25 -12.75 13.25 C-12.75 11.93 -12.75 10.61 -12.75 9.25 C-12.09 9.25 -11.43 9.25 -10.75 9.25 C-10.87375 8.13625 -10.87375 8.13625 -11 7 C-10.75 4.25 -10.75 4.25 -9.15625 2.09375 C-5.9546609 -0.35941567 -3.9835084 -0.15934034 0 0 Z M-0.75 20.25 C-0.93175781 20.806875 -1.11351562 21.36375 -1.30078125 21.9375 C-2.99862185 27.09196991 -4.81422235 32.18010615 -6.75 37.25 C-2.46 37.25 1.83 37.25 6.25 37.25 C5.52511624 34.35046497 4.74765531 31.57969274 3.8125 28.75 C3.56628906 27.9971875 3.32007813 27.244375 3.06640625 26.46875 C2.26847414 24.30020724 1.32324109 22.29426873 0.25 20.25 C-0.08 20.25 -0.41 20.25 -0.75 20.25 Z " fill="#205A5B" transform="translate(450.75,211.75)"/>
<path d="M0 0 C0.99 0 1.98 0 3 0 C4.24300039 7.55361773 4.0735407 14.98881931 3.875 22.625 C3.8646875 23.92179687 3.854375 25.21859375 3.84375 26.5546875 C3.56031112 37.15094105 3.56031112 37.15094105 0.6328125 40.7109375 C-0.23601562 41.46632812 -1.10484375 42.22171875 -2 43 C-3.00647419 43.99348362 -4.00801127 44.9920524 -5 46 C-4.25862289 46.72583282 -3.51724579 47.45166565 -2.75340271 48.19949341 C4.22588488 55.03697319 11.18668628 61.89279183 18.12974644 68.76706123 C21.70000404 72.30076378 25.27648833 75.82765291 28.86791992 79.33984375 C32.33266504 82.72861517 35.78010252 86.13412937 39.21613884 89.55199814 C40.53100768 90.85391774 41.85202959 92.14965282 43.17917061 93.43906021 C45.03521835 95.24439934 46.86829447 97.07036669 48.69750977 98.90283203 C49.25279861 99.43295395 49.80808746 99.96307587 50.38020325 100.50926208 C52.94872177 103.12770573 53.99205265 104.44839163 54.04579163 108.17829895 C52.9182858 111.22047705 52.11175385 112.30086582 49.56982422 114.24438477 C44.30945201 118.51481245 39.63990369 123.27183574 34.8828125 128.08984375 C33.93533882 129.04427892 32.98748626 129.99833811 32.03927612 130.95204163 C28.0485082 134.96705165 24.06373221 138.98797236 20.08300781 143.01293945 C17.63357292 145.48907912 15.17934973 147.96038722 12.7220726 150.42874336 C11.33676614 151.82328047 9.95705712 153.22337073 8.5774231 154.6235199 C7.74250336 155.46181839 6.90758362 156.30011688 6.04736328 157.16381836 C5.31204376 157.90659531 4.57672424 158.64937225 3.81912231 159.41465759 C2 161 2 161 0 161 C-0.35010132 161.83688354 -0.35010132 161.83688354 -0.70727539 162.69067383 C-2.32892332 165.58758937 -4.33883022 167.59823392 -6.68359375 169.94921875 C-7.61107422 170.87927734 -8.53855469 171.80933594 -9.49414062 172.76757812 C-10.21887573 173.48602905 -10.21887573 173.48602905 -10.95825195 174.21899414 C-12.43613438 175.68614429 -13.90301766 177.16368705 -15.36914062 178.64257812 C-16.29791016 179.56876953 -17.22667969 180.49496094 -18.18359375 181.44921875 C-19.03493896 182.29830811 -19.88628418 183.14739746 -20.76342773 184.0222168 C-23 186 -23 186 -26 187 C-28.83212598 184.16787402 -27.50456397 174.58721452 -27.56982422 170.61083984 C-27.60631554 168.88412238 -27.66071726 167.1576813 -27.73388672 165.43212891 C-28.33315162 151.08014883 -28.33315162 151.08014883 -24.95214844 145.8046875 C-22.74385928 143.59553268 -20.59353292 141.73292493 -18 140 C-23.48445122 133.32784074 -29.56563815 127.28868863 -35.671875 121.1953125 C-36.80208685 120.06442602 -37.93215031 118.93339122 -39.06207275 117.80221558 C-41.41720345 115.44561838 -43.77411396 113.09082009 -46.13232422 110.73730469 C-49.15764643 107.71771206 -52.17841271 104.69360758 -55.19788742 101.66816902 C-57.52430043 99.33814997 -59.85308052 97.01050853 -62.1825943 94.68358994 C-63.29812301 93.56872868 -64.41290833 92.45312308 -65.52693939 91.33676529 C-67.0777316 89.78344234 -68.63167749 88.2333458 -70.18652344 86.68408203 C-71.06999451 85.80140656 -71.95346558 84.91873108 -72.8637085 84.00930786 C-74.83427828 81.96326333 -74.83427828 81.96326333 -77 81 C-76.41625334 77.67706943 -75.42067123 76.04906625 -73.03918457 73.68515015 C-72.40819351 73.05148026 -71.77720245 72.41781036 -71.12709045 71.76493835 C-70.43095139 71.08115616 -69.73481232 70.39737396 -69.01757812 69.69287109 C-67.92249184 68.59953712 -67.92249184 68.59953712 -66.80528259 67.4841156 C-64.38749472 65.07352282 -61.95937094 62.67361793 -59.53125 60.2734375 C-57.85283271 58.60315398 -56.17514831 56.9321337 -54.49816895 55.26040649 C-50.07934191 50.85871407 -45.65202598 46.46566357 -41.22247314 42.07476807 C-34.12958939 35.04103806 -27.04932402 27.99461131 -19.96958923 20.94765091 C-17.48994668 18.48201445 -15.0065525 16.02020586 -12.52258301 13.55892944 C-11.00911495 12.05548113 -9.49572367 10.55195551 -7.98242188 9.04833984 C-7.28628281 8.36050919 -6.59014374 7.67267853 -5.87290955 6.96400452 C-5.24191849 6.33597427 -4.61092743 5.70794403 -3.96081543 5.06088257 C-3.40996025 4.51484564 -2.85910507 3.96880871 -2.29155731 3.4062252 C-0.8902194 2.01015178 -0.8902194 2.01015178 0 0 Z M-2.00550842 4.86506653 C-2.6463588 5.50020676 -3.28720917 6.13534698 -3.94747925 6.78973389 C-4.6545401 7.49567688 -5.36160095 8.20161987 -6.09008789 8.92895508 C-6.83150528 9.66540756 -7.57292267 10.40186005 -8.33680725 11.16062927 C-10.80160263 13.61075552 -13.26242839 16.06481914 -15.72265625 18.51953125 C-17.4251606 20.21628839 -19.12767023 21.91304024 -20.83018494 23.60978699 C-24.40412717 27.17320591 -27.97571913 30.73896381 -31.54614258 34.3059082 C-36.13197824 38.88625416 -40.72701144 43.4572544 -45.32430363 48.0260973 C-48.84563628 51.52884943 -52.36028516 55.03824931 -55.873106 58.54953575 C-57.5647875 60.23818019 -59.25898189 61.92431095 -60.95567513 63.60791969 C-63.32397821 65.95925723 -65.68273416 68.31977547 -68.03930664 70.68286133 C-68.74839172 71.38273163 -69.45747681 72.08260193 -70.18804932 72.80368042 C-70.82607986 73.44728012 -71.46411041 74.09087982 -72.12147522 74.75398254 C-72.68062654 75.3116673 -73.23977785 75.86935205 -73.81587315 76.44393635 C-75.3027877 78.07199817 -75.3027877 78.07199817 -75 81 C-73.63423932 82.51852897 -73.63423932 82.51852897 -71.73461914 83.97216797 C-65.946127 88.82829139 -60.61699752 94.13905768 -55.24609375 99.4453125 C-54.70055407 99.98428036 -54.15501438 100.52324821 -53.59294319 101.07854843 C-50.71831219 103.92086066 -47.8475783 106.76705323 -44.97924805 109.61572266 C-42.6099524 111.96707468 -40.23238715 114.30957441 -37.84741211 116.64501953 C-34.95257338 119.4798505 -32.07256455 122.32896382 -29.20271492 125.1890831 C-28.11013234 126.27309859 -27.01241656 127.35196564 -25.90954399 128.42551041 C-24.37514422 129.92120144 -22.8605523 131.43452314 -21.34936523 132.95361328 C-20.04986183 134.23765549 -20.04986183 134.23765549 -18.72410583 135.54763794 C-17 138 -17 138 -17.11378479 140.71286011 C-18.22378678 143.57754782 -19.57000513 144.45047403 -22.03125 146.25 C-25.50826814 149.55316724 -26.51513516 152.01473604 -26.76464844 156.82348633 C-26.79312485 160.55682841 -26.66802257 164.27100854 -26.5 168 C-26.45981465 169.55329347 -26.42332273 171.10668713 -26.390625 172.66015625 C-26.30303019 176.44260336 -26.16533508 180.22018564 -26 184 C-23.05790165 182.67289741 -20.98385569 181.23210009 -18.70965576 178.95016479 C-18.0815097 178.32476807 -17.45336365 177.69937134 -16.80618286 177.05502319 C-16.12860931 176.37025909 -15.45103577 175.685495 -14.75292969 174.97998047 C-13.6694072 173.89689606 -13.6694072 173.89689606 -12.56399536 172.79193115 C-10.17851721 170.40506011 -7.80020061 168.0111838 -5.421875 165.6171875 C-3.76892998 163.96051221 -2.11554273 162.30427805 -0.46173096 160.64846802 C3.88936088 156.28974083 8.23441313 151.92504076 12.57824707 147.55908203 C17.01208371 143.10478495 21.45158909 138.65614582 25.890625 134.20703125 C34.5993166 125.47689145 43.30164008 116.74043306 52 108 C50.17171647 104.05243358 47.60889867 101.33988666 44.54052734 98.31347656 C43.98428177 97.75693893 43.42803619 97.20040131 42.85493469 96.6269989 C41.01997095 94.79342558 39.17803069 92.96703328 37.3359375 91.140625 C36.06040611 89.86882475 34.78531633 88.59658147 33.51065063 87.32391357 C30.15804605 83.97893742 26.79947827 80.64001149 23.43963623 77.30230713 C20.01082544 73.89397169 16.58768427 70.47995255 13.1640625 67.06640625 C6.44824728 60.37202703 -0.27388094 53.68402534 -7 47 C-5.50111706 43.7805274 -4.27789392 42.39965612 -1.40234375 40.33984375 C1.83769926 37.19388548 2.46332036 34.59898061 2.66659546 30.11660767 C2.69589616 26.25938364 2.58398462 22.41650641 2.4375 18.5625 C2.4023499 16.95644803 2.37041736 15.35032222 2.34179688 13.74414062 C2.26503619 9.82759118 2.14446824 5.91461291 2 2 C0.21059341 2 -0.79377318 3.65977333 -2.00550842 4.86506653 Z " fill="#E6E5D8" transform="translate(98,166)"/>
<path d="M0 0 C0.224285 4.67701312 0.38659041 9.35083273 0.49438477 14.03198242 C0.53935437 15.62010264 0.60055903 17.20785633 0.67895508 18.79467773 C1.3145957 32.00187736 1.3145957 32.00187736 -2.04345703 37.10595703 C-4.25480263 39.31730263 -6.43299263 41.22016964 -9 43 C-12.04332765 41.6415798 -14.12309151 40.11536976 -16.453125 37.7421875 C-17.071875 37.11699219 -17.690625 36.49179688 -18.328125 35.84765625 C-18.96234375 35.19667969 -19.5965625 34.54570312 -20.25 33.875 C-20.8996875 33.21628906 -21.549375 32.55757812 -22.21875 31.87890625 C-23.81711727 30.25703357 -25.41061897 28.6306719 -27 27 C-21.90160256 20.83626579 -16.35339242 15.20402299 -10.6875 9.5625 C-9.30981445 8.17901367 -9.30981445 8.17901367 -7.90429688 6.76757812 C-7.03224609 5.89681641 -6.16019531 5.02605469 -5.26171875 4.12890625 C-4.46725342 3.33556885 -3.67278809 2.54223145 -2.85424805 1.72485352 C-1 0 -1 0 0 0 Z " fill="#1E5757" transform="translate(100,168)"/>
<path d="M0 0 C4.96692361 1.30554967 7.80174857 3.2091624 11.4375 6.8125 C12.76587891 8.09060547 12.76587891 8.09060547 14.12109375 9.39453125 C16 12 16 12 15.85864258 14.38623047 C14.20787511 19.41128493 9.94041888 22.6709418 6.25 26.3125 C5.43789062 27.14845703 4.62578125 27.98441406 3.7890625 28.84570312 C2.99757813 29.63525391 2.20609375 30.42480469 1.390625 31.23828125 C0.3082959 32.321698 0.3082959 32.321698 -0.79589844 33.42700195 C-3.41923324 35.2991936 -4.84636209 35.33314538 -8 35 C-8.23389268 30.66758789 -8.37494264 26.33681072 -8.5 22 C-8.56703125 20.77925781 -8.6340625 19.55851562 -8.703125 18.30078125 C-8.89742737 9.31429685 -8.89742737 9.31429685 -6.18359375 5.33984375 C-4.2145022 3.3707522 -2.2514006 1.63461329 0 0 Z " fill="#ED943C" transform="translate(82,310)"/>
<path d="M0 0 C4.95 0 9.9 0 15 0 C17.5 6 20 12 22.5 18 C23.08491211 19.40330566 23.08491211 19.40330566 23.68164062 20.83496094 C24.50574054 22.81341117 25.32903538 24.79219716 26.15112305 26.77148438 C28.30402696 31.9509993 30.4739082 37.12234598 32.67578125 42.28125 C33.5546875 44.35416667 34.43359375 46.42708333 35.3125 48.5 C35.76689453 49.55703125 36.22128906 50.6140625 36.68945312 51.703125 C37.11806641 52.71890625 37.54667969 53.7346875 37.98828125 54.78125 C38.37540283 55.68939453 38.76252441 56.59753906 39.16137695 57.53320312 C40 60 40 60 40 64 C31.585 64.495 31.585 64.495 23 65 C20 56.375 20 56.375 20 53 C12.08 53 4.16 53 -4 53 C-4 54.65 -4 56.3 -4 58 C-4.66 58 -5.32 58 -6 58 C-6.66 59.98 -7.32 61.96 -8 64 C-13.60234906 65.20318906 -19.05534575 65.07790225 -24.75 65 C-26.64056856 64.97455493 -28.53120292 64.95350005 -30.421875 64.9375 C-31.25299805 64.92589844 -32.08412109 64.91429687 -32.94042969 64.90234375 C-35.06489221 64.86396723 -35.06489221 64.86396723 -37 66 C-37 65.34 -37 64.68 -37 64 C-37.61875 63.855625 -38.2375 63.71125 -38.875 63.5625 C-41 63 -41 63 -43 62 C-43.96400795 60.33791733 -44.92343199 58.67281075 -45.84765625 56.98828125 C-47.67949039 53.82759116 -49.83814367 50.94252668 -52 48 C-51.67 47.34 -51.34 46.68 -51 46 C-50.37996094 47.07121094 -49.75992187 48.14242187 -49.12109375 49.24609375 C-44.75911643 56.77678496 -44.75911643 56.77678496 -38.00683594 61.80859375 C-33.65464152 62.66798334 -29.40546736 62.46967871 -25 62 C-28.59121042 55.12985833 -33.29221851 49.12615155 -38 43 C-37.67 42.34 -37.34 41.68 -37 41 C-32.49452755 46.55637669 -28.08582626 52.12662475 -24 58 C-23.34 56.68 -22.68 55.36 -22 54 C-21.34 54 -20.68 54 -20 54 C-19.505 53.01 -19.505 53.01 -19 52 C-19.53980347 55.39305036 -20.16550811 58.66203244 -21 62 C-16.71 62 -12.42 62 -8 62 C-7.690625 60.55625 -7.38125 59.1125 -7.0625 57.625 C-6.54516353 55.21076314 -6.10514766 53.21029533 -5 51 C3.25 51 11.5 51 20 51 C24 60 24 60 24 63 C28.62 63 33.24 63 38 63 C35.62856769 56.32485721 33.11005419 49.76219871 30.3515625 43.23828125 C28.85616128 39.65536907 27.42642549 36.04819646 26 32.4375 C24.23786227 27.98602052 22.39425979 23.59202796 20.375 19.25 C17.90800852 13.94077886 15.93680268 8.52347432 14 3 C9.38 3 4.76 3 0 3 C0 2.01 0 1.02 0 0 Z " fill="#D0E2E2" transform="translate(443,210)"/>
<path d="M0 0 C12.87 0 25.74 0 39 0 C39.84046417 3.36185666 40.13504864 5.78603588 40.125 9.1875 C40.12886719 10.50814453 40.12886719 10.50814453 40.1328125 11.85546875 C40 14 40 14 39 15 C37.29227642 15.08713831 35.58101351 15.10700007 33.87109375 15.09765625 C32.31938477 15.09282227 32.31938477 15.09282227 30.73632812 15.08789062 C29.64771484 15.07951172 28.55910156 15.07113281 27.4375 15.0625 C25.7987793 15.05573242 25.7987793 15.05573242 24.12695312 15.04882812 C21.41791505 15.03699826 18.70898401 15.02051543 16 15 C16 17.97 16 20.94 16 24 C22.93 24.33 29.86 24.66 37 25 C38.125 36.75 38.125 36.75 37 39 C26.605 39.495 26.605 39.495 16 40 C16 42.97 16 45.94 16 49 C16.68626465 48.99476318 17.3725293 48.98952637 18.07958984 48.98413086 C21.17805064 48.96339044 24.27649686 48.95034924 27.375 48.9375 C28.45523438 48.92912109 29.53546875 48.92074219 30.6484375 48.91210938 C31.6796875 48.90888672 32.7109375 48.90566406 33.7734375 48.90234375 C34.72653809 48.89710693 35.67963867 48.89187012 36.66162109 48.88647461 C39 49 39 49 41 50 C41.02685938 52.14576637 41.04633088 54.29162645 41.0625 56.4375 C41.07410156 57.63246094 41.08570313 58.82742188 41.09765625 60.05859375 C41 63 41 63 40 64 C37.04316769 64.08867636 34.10914786 64.11527527 31.15234375 64.09765625 C29.97436218 64.09614563 29.97436218 64.09614563 28.77258301 64.09460449 C25.82754057 64.08935638 22.88251888 64.07539523 19.9375 64.0625 C13.358125 64.041875 6.77875 64.02125 0 64 C0 42.88 0 21.76 0 0 Z M1 1 C1 21.46 1 41.92 1 63 C13.54 63 26.08 63 39 63 C39 59.04 39 55.08 39 51 C30.75 51 22.5 51 14 51 C14 46.71 14 42.42 14 38 C21.26 38 28.52 38 36 38 C36 34.04 36 30.08 36 26 C28.74 26 21.48 26 14 26 C14 21.71 14 17.42 14 13 C21.92 13 29.84 13 38 13 C38 9.04 38 5.08 38 1 C25.79 1 13.58 1 1 1 Z " fill="#E3F1F2" transform="translate(174,210)"/>
<path d="M0 0 C3.90743581 1.59410643 6.57780825 4.26865425 9.51879883 7.1965332 C10.326754 7.98959366 10.326754 7.98959366 11.15103149 8.79867554 C12.92529712 10.54380484 14.69174888 12.29656808 16.45703125 14.05078125 C17.68681911 15.26906268 18.91661145 16.4873396 20.14640808 17.70561218 C22.7198986 20.25811692 25.28871972 22.8152286 27.85522461 25.37475586 C31.14852274 28.6570546 34.45997588 31.92037628 37.77605152 35.17963886 C40.3210602 37.68745876 42.85261019 40.20853732 45.38062096 42.73348045 C46.59614501 43.9429419 47.81668049 45.147388 49.04221535 46.34670448 C50.75196615 48.02244481 52.44188423 49.71598147 54.12817383 51.4152832 C54.63977554 51.90845535 55.15137726 52.4016275 55.67848206 52.90974426 C57.05915833 54.32417297 57.05915833 54.32417297 59 57 C58.91777039 59.74650574 58.91777039 59.74650574 58 62 C56.1875 63.640625 56.1875 63.640625 54 65.25 C49.94351671 69.10365912 49.20377638 72.57711507 49 78 C48.93363852 81.00227345 48.95979709 83.99754443 49 87 C48.99189751 88.55340849 48.98021054 90.10680264 48.96484375 91.66015625 C48.93517555 95.44120365 48.95420229 99.2191443 49 103 C55.50460105 97.51548048 61.51483782 91.60420805 67.5 85.5625 C68.4178125 84.64017578 69.335625 83.71785156 70.28125 82.76757812 C72.52315055 80.51400101 74.762666 78.25810925 77 76 C77.33 76.99 77.66 77.98 78 79 C76.515 79.495 76.515 79.495 75 80 C74.32233597 81.32777773 73.65798986 82.66236344 73 84 C71.48936499 85.69616081 69.920356 87.34101328 68.31640625 88.94921875 C66.92518555 90.34430664 66.92518555 90.34430664 65.50585938 91.76757812 C65.02270264 92.24654541 64.5395459 92.7255127 64.04174805 93.21899414 C62.56386562 94.68614429 61.09698234 96.16368705 59.63085938 97.64257812 C58.70208984 98.56876953 57.77332031 99.49496094 56.81640625 100.44921875 C55.96506104 101.29830811 55.11371582 102.14739746 54.23657227 103.0222168 C52 105 52 105 49 106 C46.16787402 103.16787402 47.49543603 93.58721452 47.43017578 89.61083984 C47.39368446 87.88412238 47.33928274 86.1576813 47.26611328 84.43212891 C46.66684838 70.08014883 46.66684838 70.08014883 50.04785156 64.8046875 C52.25614072 62.59553268 54.40646708 60.73292493 57 59 C52.00478666 52.91124287 46.50399202 47.38591046 40.92062759 41.8454628 C39.22907692 40.16679579 37.54077572 38.4849191 35.85324097 36.80221558 C32.27997956 33.24030668 28.70276575 29.68238371 25.125 26.125 C20.95674438 21.98033854 16.7901206 17.83406311 12.62765121 13.68358994 C10.96107527 12.02351379 9.29152811 10.3664651 7.62185669 8.70950317 C6.60990038 7.70117597 5.59808228 6.69271003 4.58642578 5.68408203 C3.69851349 4.80140656 2.8106012 3.91873108 1.89578247 3.00930786 C0 1 0 1 0 0 Z " fill="#CED7CF" transform="translate(23,247)"/>
<path d="M0 0 C3.69354573 3.4409956 7.04401111 7.20437488 10.4375 10.9375 C16.58900976 17.65709628 23.00225364 24.09499436 29.48120117 30.49731445 C31.66303155 32.6559973 33.8315628 34.82787498 36 37 C36.59425781 37.59425781 37.18851563 38.18851562 37.80078125 38.80078125 C39.20052083 40.20052083 40.60026042 41.60026042 42 43 C40.67879172 45.93230193 39.25361803 47.98664899 36.9609375 50.234375 C36.38085938 50.80800781 35.80078125 51.38164062 35.203125 51.97265625 C34.59984375 52.55917969 33.9965625 53.14570313 33.375 53.75 C32.76398438 54.35199219 32.15296875 54.95398438 31.5234375 55.57421875 C30.02011376 57.05405305 28.51065144 58.52764676 27 60 C23.66751189 58.54483465 21.44166293 56.70905435 18.8581543 54.16455078 C18.05439865 53.37678253 17.25064301 52.58901428 16.42253113 51.77737427 C15.56508804 50.92529388 14.70764496 50.0732135 13.82421875 49.1953125 C12.93966507 48.31978729 12.05511139 47.44426208 11.14375305 46.54220581 C9.27759652 44.69055028 7.4142338 42.83607541 5.5534668 40.97900391 C3.16644613 38.5973872 0.76365838 36.23237655 -1.64332294 33.87095833 C-3.93597955 31.61512946 -6.21095647 29.34160237 -8.48828125 27.0703125 C-9.35584549 26.22228058 -10.22340973 25.37424866 -11.11726379 24.5005188 C-11.90525864 23.70644623 -12.69325348 22.91237366 -13.50512695 22.09423828 C-14.20587845 21.39855743 -14.90662994 20.70287659 -15.62861633 19.9861145 C-17 18 -17 18 -16.80386353 15.85281372 C-15.8285744 13.60488356 -14.646783 12.27439658 -12.91015625 10.546875 C-12.29076172 9.928125 -11.67136719 9.309375 -11.03320312 8.671875 C-10.38287109 8.03765625 -9.73253906 7.4034375 -9.0625 6.75 C-8.09280273 5.77546875 -8.09280273 5.77546875 -7.10351562 4.78125 C-2.26702009 0 -2.26702009 0 0 0 Z M-2 2 C-3.37562854 3.28965176 -4.70766393 4.62689293 -6 6 C-6 6.66 -6 7.32 -6 8 C-6.59296875 8.25523437 -7.1859375 8.51046875 -7.796875 8.7734375 C-10.21224538 10.11816498 -11.51211706 11.49214367 -13.25 13.625 C-13.77078125 14.25664062 -14.2915625 14.88828125 -14.828125 15.5390625 C-15.21484375 16.02117187 -15.6015625 16.50328125 -16 17 C-10.86848988 22.24725729 -5.7236223 27.48101843 -0.56119156 32.6978693 C1.83541871 35.12059605 4.22714919 37.54776171 6.60839844 39.9855957 C9.34490315 42.78671672 12.10145099 45.56761482 14.859375 48.34765625 C15.71368103 49.22776871 16.56798706 50.10788116 17.44818115 51.0146637 C18.64897308 52.21602211 18.64897308 52.21602211 19.87402344 53.44165039 C20.57573669 54.15446671 21.27744995 54.86728302 22.00042725 55.60169983 C23.89148649 57.24505728 23.89148649 57.24505728 26.16064453 56.79833984 C28.24673322 55.89290979 29.43623744 54.90823307 31.015625 53.27734375 C31.54414062 52.73916016 32.07265625 52.20097656 32.6171875 51.64648438 C33.15601563 51.08251953 33.69484375 50.51855469 34.25 49.9375 C34.80429688 49.36966797 35.35859375 48.80183594 35.9296875 48.21679688 C37.29334214 46.81787531 38.64760417 45.40980886 40 44 C35.63900261 38.79074885 31.06436308 33.90419481 26.265625 29.09765625 C25.18677032 28.01380898 25.18677032 28.01380898 24.08612061 26.9080658 C22.57809074 25.39500615 21.06873313 23.88326876 19.55810547 22.37280273 C17.23767234 20.05016061 14.92537861 17.71960854 12.61328125 15.38867188 C11.14371809 13.91617855 9.67368295 12.44415609 8.203125 10.97265625 C7.51043518 10.27278091 6.81774536 9.57290558 6.10406494 8.8518219 C5.46289734 8.21373093 4.82172974 7.57563995 4.16113281 6.91821289 C3.59742981 6.35308487 3.03372681 5.78795685 2.45294189 5.20570374 C1.05816188 3.78713508 1.05816188 3.78713508 -1 4 C-1.33 3.34 -1.66 2.68 -2 2 Z " fill="#DCE3DB" transform="translate(74,229)"/>
<path d="M0 0 C0.66 0.66 1.32 1.32 2 2 C2.66 1.34 3.32 0.68 4 0 C7.0390625 -0.1953125 7.0390625 -0.1953125 10.625 -0.125 C12.40777344 -0.09792969 12.40777344 -0.09792969 14.2265625 -0.0703125 C15.14179688 -0.04710937 16.05703125 -0.02390625 17 0 C17 0.99 17 1.98 17 3 C15.02 3 13.04 3 11 3 C10.86722656 3.75925781 10.73445313 4.51851563 10.59765625 5.30078125 C10.42105469 6.29464844 10.24445313 7.28851563 10.0625 8.3125 C9.80146484 9.79169922 9.80146484 9.79169922 9.53515625 11.30078125 C9 14 9 14 8 17 C7.01 17 6.02 17 5 17 C5.41153737 12.02906176 5.79600832 7.55491614 8 3 C6.01508358 3.26676204 6.01508358 3.26676204 4 4 C3.67 4.99 3.34 5.98 3 7 C1.68 7 0.36 7 -1 7 C-1.33 6.01 -1.66 5.02 -2 4 C-6.47883696 4.44703986 -6.47883696 4.44703986 -10 7 C-10.16681109 10.08347826 -10.16681109 10.08347826 -10 13 C-7.12549017 13.25048636 -7.12549017 13.25048636 -4 13 C-2.31201173 11.56249809 -2.31201173 11.56249809 -1 10 C-0.01 10 0.98 10 2 10 C2 10.99 2 11.98 2 13 C1.34 13 0.68 13 0 13 C0 13.66 0 14.32 0 15 C-3.6899492 17.45996614 -6.71659713 17.67949564 -11 17 C-13.5625 15.4375 -13.5625 15.4375 -15 13 C-15.08186952 8.49717649 -14.48879013 6.57652169 -11.5625 3.125 C-7.55013898 -0.20232377 -5.20359087 -0.2787638 0 0 Z " fill="#9E9E9E" transform="translate(241,279)"/>
<path d="M0 0 C1.32 0.33 2.64 0.66 4 1 C4.66 3.64 5.32 6.28 6 9 C8.97 4.545 8.97 4.545 12 0 C13.32 0.33 14.64 0.66 16 1 C15.85936865 3.29199177 15.71234057 5.58359186 15.5625 7.875 C15.48128906 9.15117187 15.40007812 10.42734375 15.31640625 11.7421875 C15 15 15 15 14 17 C13.01 17 12.02 17 11 17 C10.67 14.69 10.34 12.38 10 10 C9.66226563 10.5053125 9.32453125 11.010625 8.9765625 11.53125 C8.53054687 12.1809375 8.08453125 12.830625 7.625 13.5 C7.18414062 14.1496875 6.74328125 14.799375 6.2890625 15.46875 C5.86367187 15.9740625 5.43828125 16.479375 5 17 C4.34 17 3.68 17 3 17 C2.34 14.36 1.68 11.72 1 9 C-0.32 11.64 -1.64 14.28 -3 17 C-3.99 17 -4.98 17 -6 17 C-5.49487476 10.77012202 -2.67395877 5.54525767 0 0 Z " fill="#B2B2B2" transform="translate(183,279)"/>
<path d="M0 0 C5.28 0 10.56 0 16 0 C16 0.66 16 1.32 16 2 C17.65 1.67 19.3 1.34 21 1 C20.01 2.32 19.02 3.64 18 5 C18.928125 4.175 19.85625 3.35 20.8125 2.5 C23.625 0 23.625 0 27 0 C25.82165442 2.78518047 24.54227266 4.51494326 22.5 6.8125 C19.72939701 10.00809223 18.90200302 12.89998627 18 17 C16.68 17 15.36 17 14 17 C14.01160156 16.40832031 14.02320313 15.81664062 14.03515625 15.20703125 C14.08322386 10.99768215 14.06006883 7.1077667 13 3 C11.02 3 9.04 3 7 3 C6.95101563 3.59167969 6.90203125 4.18335938 6.8515625 4.79296875 C6.43543133 9.19104472 5.95034405 12.96928897 4 17 C3.01 17 2.02 17 1 17 C1.51405169 12.03083364 2.23384882 7.70973649 4 3 C2.68 3 1.36 3 0 3 C0 2.01 0 1.02 0 0 Z " fill="#ABABAB" transform="translate(454,279)"/>
<path d="M0 0 C0.33 0 0.66 0 1 0 C1 9.9 1 19.8 1 30 C1.99 30.33 2.98 30.66 4 31 C1.03 33.475 1.03 33.475 -2 36 C-2.33 35.34 -2.66 34.68 -3 34 C-6.21969114 29.17046329 -10.07179715 24.47889033 -15.3203125 21.828125 C-19.2243184 22.07852771 -20.95380493 23.69343042 -23.55517578 26.53173828 C-26.49793866 31.55899964 -25.98807547 37.26412228 -25.9375 42.9375 C-25.96166992 44.82178711 -25.96166992 44.82178711 -25.98632812 46.74414062 C-26.02153423 49.83054276 -26.02514446 52.91359739 -26 56 C-24.68 56.33 -23.36 56.66 -22 57 C-23.28965176 58.37562854 -24.62689293 59.70766393 -26 61 C-26.66 61 -27.32 61 -28 61 C-28.22437063 56.46541204 -28.38662457 51.93412305 -28.49438477 47.39526367 C-28.53934116 45.85562818 -28.60053611 44.31637035 -28.67895508 42.77807617 C-29.31458562 29.97822201 -29.31458562 29.97822201 -26.02685547 25.03076172 C-23.7902751 22.81927622 -21.48213617 20.92370499 -19 19 C-18.34 18.01 -17.68 17.02 -17 16 C-11.72 21.28 -6.44 26.56 -1 32 C-0.67 21.44 -0.34 10.88 0 0 Z " fill="#E7A15B" transform="translate(100,289)"/>
<path d="M0 0 C4.95 0 9.9 0 15 0 C17.5 6 20 12 22.5 18 C22.88994141 18.93553711 23.27988281 19.87107422 23.68164062 20.83496094 C24.50574054 22.81341117 25.32903538 24.79219716 26.15112305 26.77148438 C28.30402696 31.9509993 30.4739082 37.12234598 32.67578125 42.28125 C33.5546875 44.35416667 34.43359375 46.42708333 35.3125 48.5 C35.76689453 49.55703125 36.22128906 50.6140625 36.68945312 51.703125 C37.33237305 53.22679687 37.33237305 53.22679687 37.98828125 54.78125 C38.37540283 55.68939453 38.76252441 56.59753906 39.16137695 57.53320312 C40 60 40 60 40 64 C31.585 64.495 31.585 64.495 23 65 C19.65178571 55.89285714 19.65178571 55.89285714 21 52 C21.50615298 53.26839526 22.00469099 54.53983102 22.5 55.8125 C22.7784375 56.52019531 23.056875 57.22789062 23.34375 57.95703125 C24 60 24 60 24 63 C28.62 63 33.24 63 38 63 C35.62856769 56.32485721 33.11005419 49.76219871 30.3515625 43.23828125 C28.85616128 39.65536907 27.42642549 36.04819646 26 32.4375 C24.23786227 27.98602052 22.39425979 23.59202796 20.375 19.25 C17.90800852 13.94077886 15.93680268 8.52347432 14 3 C9.38 3 4.76 3 0 3 C0 2.01 0 1.02 0 0 Z " fill="#DAE9E9" transform="translate(443,210)"/>
<path d="M0 0 C0.99 0 1.98 0 3 0 C4.32 2.64 5.64 5.28 7 8 C7.33 8 7.66 8 8 8 C8.66 5.36 9.32 2.72 10 0 C12.97 0.495 12.97 0.495 16 1 C15.3503125 1.8971875 15.3503125 1.8971875 14.6875 2.8125 C12.30009815 7.32203683 11.2184862 12.06556298 10 17 C8.140625 16.75390625 8.140625 16.75390625 6 16 C4.27056087 13.47523238 3.25011013 10.8127478 2 8 C1.01 10.97 0.02 13.94 -1 17 C-1.99 17 -2.98 17 -4 17 C-2.09756098 2.09756098 -2.09756098 2.09756098 0 0 Z " fill="#9E9E9F" transform="translate(387,279)"/>
<path d="M0 0 C1.19140625 1.6796875 1.19140625 1.6796875 0.94140625 4.2421875 C0.19140625 6.6796875 0.19140625 6.6796875 -0.80859375 8.6796875 C-0.74671875 9.4840625 -0.68484375 10.2884375 -0.62109375 11.1171875 C-0.80859375 13.6796875 -0.80859375 13.6796875 -2.24609375 15.4921875 C-6.05228858 17.25603388 -9.68037671 16.91785387 -13.80859375 16.6796875 C-13.29376456 10.8268925 -12.35502183 5.3499238 -10.80859375 -0.3203125 C-9.37449007 -0.56985255 -7.93599303 -0.79423892 -6.49609375 -1.0078125 C-5.69558594 -1.13542969 -4.89507812 -1.26304687 -4.0703125 -1.39453125 C-1.80859375 -1.3203125 -1.80859375 -1.3203125 0 0 Z M-7.80859375 2.6796875 C-8.13859375 3.9996875 -8.46859375 5.3196875 -8.80859375 6.6796875 C-7.15859375 6.6796875 -5.50859375 6.6796875 -3.80859375 6.6796875 C-3.47859375 5.3596875 -3.14859375 4.0396875 -2.80859375 2.6796875 C-4.45859375 2.6796875 -6.10859375 2.6796875 -7.80859375 2.6796875 Z M-9.80859375 9.6796875 C-9.80859375 10.9996875 -9.80859375 12.3196875 -9.80859375 13.6796875 C-8.15859375 13.3496875 -6.50859375 13.0196875 -4.80859375 12.6796875 C-4.47859375 11.6896875 -4.14859375 10.6996875 -3.80859375 9.6796875 C-5.78859375 9.6796875 -7.76859375 9.6796875 -9.80859375 9.6796875 Z " fill="#818181" transform="translate(428.80859375,279.3203125)"/>
<path d="M0 0 C7.92 0 15.84 0 24 0 C24 0.33 24 0.66 24 1 C16.41 1 8.82 1 1 1 C1 4.63 1 8.26 1 12 C8.26 12 15.52 12 23 12 C24.125 23.75 24.125 23.75 23 26 C12.605 26.495 12.605 26.495 2 27 C2 29.97 2 32.94 2 36 C9.59 36 17.18 36 25 36 C25 36.66 25 37.32 25 38 C16.75 38 8.5 38 0 38 C0 33.71 0 29.42 0 25 C7.26 25 14.52 25 22 25 C22 21.04 22 17.08 22 13 C14.74 13 7.48 13 0 13 C0 8.71 0 4.42 0 0 Z " fill="#BCD2D3" transform="translate(188,223)"/>
<path d="M0 0 C2.4375 1.625 2.4375 1.625 4 4 C4.81047321 8.14241864 4.21129955 9.66704314 1.9375 13.25 C-0.98624216 16.38022113 -3.7095175 17.47309864 -8 18 C-11.4375 16.625 -11.4375 16.625 -14 15 C-14.55520325 11.03426252 -15.01566498 7.49629216 -12.6875 4.06640625 C-8.7077714 0.36206065 -5.5376773 -1.04484477 0 0 Z M-8.875 5.1875 C-11.30326095 7.77916907 -11.30326095 7.77916907 -10.875 10.75 C-10.19908102 12.93516519 -10.19908102 12.93516519 -9 14 C-5.51944126 13.82432642 -5.51944126 13.82432642 -2 13 C0.29404844 9.55892734 0.26293056 8.03160191 0 4 C-1.03632739 2.76992655 -1.03632739 2.76992655 -3.25 2.625 C-6.2284461 2.80125205 -6.2284461 2.80125205 -8.875 5.1875 Z " fill="#868686" transform="translate(286,279)"/>
<path d="M0 0 C1.423125 -0.061875 2.84625 -0.12375 4.3125 -0.1875 C5.51326172 -0.23970703 5.51326172 -0.23970703 6.73828125 -0.29296875 C9 0 9 0 10.796875 1.3515625 C12 3 12 3 11.9375 5.5625 C11 8 11 8 8.9375 9.3125 C8.298125 9.539375 7.65875 9.76625 7 10 C7.66 12.31 8.32 14.62 9 17 C7.68 17 6.36 17 5 17 C4.67 15.02 4.34 13.04 4 11 C3.01 11 2.02 11 1 11 C0.67 12.98 0.34 14.96 0 17 C-1.32 17 -2.64 17 -4 17 C-2.68 11.39 -1.36 5.78 0 0 Z M3 3 C2.67 4.65 2.34 6.3 2 8 C3.98 7.67 5.96 7.34 8 7 C7.67 5.68 7.34 4.36 7 3 C5.68 3 4.36 3 3 3 Z " fill="#939393" transform="translate(293,279)"/>
<path d="M0 0 C1.875 1.5 1.875 1.5 3 3 C2.67 3.99 2.34 4.98 2 6 C1.01 6 0.02 6 -1 6 C-1.33 5.34 -1.66 4.68 -2 4 C-2.99 4 -3.98 4 -5 4 C-5 4.66 -5 5.32 -5 6 C-3.02 6.99 -1.04 7.98 1 9 C0.6875 11.875 0.6875 11.875 0 15 C-3.67346771 17.44897847 -5.66356399 17.31537716 -10 17 C-10.66 16.34 -11.32 15.68 -12 15 C-12 13.68 -12 12.36 -12 11 C-10.68 11 -9.36 11 -8 11 C-8 11.99 -8 12.98 -8 14 C-6.35 13.34 -4.7 12.68 -3 12 C-3.8971875 11.566875 -3.8971875 11.566875 -4.8125 11.125 C-7 10 -7 10 -10 8 C-10.1875 4.875 -10.1875 4.875 -10 2 C-6.60268371 -0.09065618 -3.95730595 -0.42098999 0 0 Z " fill="#959595" transform="translate(321,279)"/>
<path d="M0 0 C2 2 2 2 2 6 C1.01 6 0.02 6 -1 6 C-1.33 5.34 -1.66 4.68 -2 4 C-3.32 4.33 -4.64 4.66 -6 5 C-2.535 6.98 -2.535 6.98 1 9 C1 10.98 1 12.96 1 15 C-2.63465602 17.32617985 -5.76036719 17.31404687 -10 17 C-10.66 16.34 -11.32 15.68 -12 15 C-12 13.68 -12 12.36 -12 11 C-9.33333333 11.66666667 -6.66666667 12.33333333 -4 13 C-3.67 12.01 -3.34 11.02 -3 10 C-3.969375 9.855625 -4.93875 9.71125 -5.9375 9.5625 C-9 9 -9 9 -10 8 C-10.04080783 6.00041636 -10.04254356 3.99954746 -10 2 C-6.60535554 -0.08901197 -3.95158471 -0.34361606 0 0 Z " fill="#959595" transform="translate(350,279)"/>
<path d="M0 0 C0.99 0 1.98 0 3 0 C2.03644647 9.41002278 2.03644647 9.41002278 1 14 C2.65 13.67 4.3 13.34 6 13 C7.32 8.71 8.64 4.42 10 0 C11.65 0 13.3 0 15 0 C14.24193832 2.4629514 13.46937097 4.91961151 12.6875 7.375 C12.47416016 8.07367188 12.26082031 8.77234375 12.04101562 9.4921875 C10.33984375 14.7734375 10.33984375 14.7734375 7 17 C1.06060606 17.53030303 1.06060606 17.53030303 -2 16 C-4.11387042 11.77225916 -2.23891799 6.78702395 -0.9375 2.5 C-0.628125 1.675 -0.31875 0.85 0 0 Z " fill="#767676" transform="translate(326,279)"/>
<path d="M0 0 C1.32 0 2.64 0 4 0 C4.33848652 1.89492006 4.67056911 3.79098466 5 5.6875 C5.185625 6.74324219 5.37125 7.79898437 5.5625 8.88671875 C5.95068074 11.64904062 6.08259976 14.21742043 6 17 C4.68 17 3.36 17 2 17 C2 15.68 2 14.36 2 13 C-0.35171131 13.59861742 -2.6859378 14.26924352 -5 15 C-5.33 15.66 -5.66 16.32 -6 17 C-7.32 17 -8.64 17 -10 17 C-8.6243563 13.14958019 -6.83312893 10.1183679 -4.4375 6.8125 C-2.02799361 3.52121677 -2.02799361 3.52121677 0 0 Z M0 6 C-0.66 7.32 -1.32 8.64 -2 10 C-0.68 9.67 0.64 9.34 2 9 C1.34 8.01 0.68 7.02 0 6 Z " fill="#A9A9A9" transform="translate(219,279)"/>
<path d="M0 0 C0.20496094 1.13179688 0.40992188 2.26359375 0.62109375 3.4296875 C0.89306972 4.91148761 1.16521387 6.39325685 1.4375 7.875 C1.57220703 8.62136719 1.70691406 9.36773437 1.84570312 10.13671875 C2.54536611 14.18533378 2.54536611 14.18533378 4 18 C2.35 17.67 0.7 17.34 -1 17 C-1 15.68 -1 14.36 -1 13 C-4.43230448 13.26393501 -4.43230448 13.26393501 -8 14 C-8.99 15.485 -8.99 15.485 -10 17 C-10.99 17 -11.98 17 -13 17 C-12.33946894 13.52818432 -10.95074862 10.94862272 -9.125 7.9375 C-8.61195313 7.08027344 -8.09890625 6.22304688 -7.5703125 5.33984375 C-3.98664441 0 -3.98664441 0 0 0 Z M-4 7 C-4.33 7.99 -4.66 8.98 -5 10 C-4.01 10 -3.02 10 -2 10 C-2.33 9.01 -2.66 8.02 -3 7 C-3.33 7 -3.66 7 -4 7 Z " fill="#5E5E5E" transform="translate(411,279)"/>
<path d="M0 0 C1.32 0.33 2.64 0.66 4 1 C4.66 6.28 5.32 11.56 6 17 C4.68 17.33 3.36 17.66 2 18 C2 16.35 2 14.7 2 13 C-0.31 13 -2.62 13 -5 13 C-5.33 14.32 -5.66 15.64 -6 17 C-7.32 17 -8.64 17 -10 17 C-8.51364884 12.78345644 -6.38750841 9.37521395 -3.875 5.6875 C-3.15054687 4.61886719 -2.42609375 3.55023438 -1.6796875 2.44921875 C-0.84824219 1.23685547 -0.84824219 1.23685547 0 0 Z M0 6 C-0.66 7.32 -1.32 8.64 -2 10 C-1.01 10 -0.02 10 1 10 C0.67 8.68 0.34 7.36 0 6 Z " fill="#969696" transform="translate(370,279)"/>
<path d="M0 0 C7.37042925 -0.36248013 7.37042925 -0.36248013 10.0625 1.1875 C11 3 11 3 10.875 5.5 C9.91630659 8.23912402 9.38022649 9.35846449 7 11 C5.989375 11.12375 4.97875 11.2475 3.9375 11.375 C2.968125 11.58125 1.99875 11.7875 1 12 C-0.45291273 14.46255685 -0.45291273 14.46255685 -1 17 C-1.99 17 -2.98 17 -4 17 C-3.58411954 10.80481527 -2.39748106 5.73310689 0 0 Z M2 3 C1.67 4.65 1.34 6.3 1 8 C2.65 8 4.3 8 6 8 C6.33 6.68 6.66 5.36 7 4 C5.35 3.67 3.7 3.34 2 3 Z " fill="#9D9D9D" transform="translate(203,279)"/>
<path d="M0 0 C1.20366211 0.00966797 1.20366211 0.00966797 2.43164062 0.01953125 C3.26501953 0.03628906 4.09839844 0.05304688 4.95703125 0.0703125 C6.22450195 0.08384766 6.22450195 0.08384766 7.51757812 0.09765625 C9.60168368 0.12120547 11.68564342 0.15707603 13.76953125 0.1953125 C13.43953125 1.8453125 13.10953125 3.4953125 12.76953125 5.1953125 C12.10953125 5.1953125 11.44953125 5.1953125 10.76953125 5.1953125 C10.54265625 5.8553125 10.31578125 6.5153125 10.08203125 7.1953125 C8.38164975 11.08189878 6.37330041 14.83211067 3.76953125 18.1953125 C3.10953125 18.1953125 2.44953125 18.1953125 1.76953125 18.1953125 C1.43953125 19.5153125 1.10953125 20.8353125 0.76953125 22.1953125 C0.10953125 22.1953125 -0.55046875 22.1953125 -1.23046875 22.1953125 C-1.92484622 24.18586126 -2.58657093 26.18786635 -3.23046875 28.1953125 C-3.51921875 29.0409375 -3.80796875 29.8865625 -4.10546875 30.7578125 C-4.28578004 34.27388258 -2.42975637 35.58365845 -0.23046875 38.1953125 C-0.56046875 39.1853125 -0.89046875 40.1753125 -1.23046875 41.1953125 C-2.4603589 39.81843547 -3.66386453 38.41795417 -4.85546875 37.0078125 C-5.52835937 36.23050781 -6.20125 35.45320313 -6.89453125 34.65234375 C-8.23046875 32.1953125 -8.23046875 32.1953125 -7.80078125 29.91015625 C-5.58693435 26.08273438 -3.07490651 22.52269447 -0.48046875 18.9453125 C0.60373244 17.43161081 1.68707416 15.91729314 2.76953125 14.40234375 C3.28773438 13.67869629 3.8059375 12.95504883 4.33984375 12.20947266 C6.90436815 8.59654125 9.3562552 4.91048748 11.76953125 1.1953125 C2.71700827 0.73238324 2.71700827 0.73238324 -5.33984375 3.8203125 C-6.86178454 5.92048186 -6.86178454 5.92048186 -8.23046875 9.1953125 C-9.23046875 7.1953125 -9.23046875 7.1953125 -8.48046875 4.6953125 C-6.47801399 0.69040297 -4.21713514 -0.05981752 0 0 Z " fill="#DDEBEB" transform="translate(405.23046875,209.8046875)"/>
<path d="M0 0 C3.3 0 6.6 0 10 0 C10 0.99 10 1.98 10 3 C7.36 3 4.72 3 2 3 C2 4.32 2 5.64 2 7 C3.65 7 5.3 7 7 7 C7 7.99 7 8.98 7 10 C5.02 10.33 3.04 10.66 1 11 C0.67 13.31 0.34 15.62 0 18 C-1.32 17.67 -2.64 17.34 -4 17 C-3.44606641 10.90673051 -2.07044316 5.76123315 0 0 Z " fill="#8F8F8F" transform="translate(264,279)"/>
<path d="M0 0 C3.37293565 1.68646783 4.93346994 2.69149717 7.453125 5.2578125 C8.071875 5.88300781 8.690625 6.50820312 9.328125 7.15234375 C9.96234375 7.80332031 10.5965625 8.45429688 11.25 9.125 C11.8996875 9.78371094 12.549375 10.44242188 13.21875 11.12109375 C14.81711727 12.74296643 16.41061897 14.3693281 18 16 C17.67 16.66 17.34 17.32 17 18 C15.62714844 16.60974609 15.62714844 16.60974609 14.2265625 15.19140625 C13.0261739 13.98163961 11.82564583 12.77201135 10.625 11.5625 C10.02171875 10.95083984 9.4184375 10.33917969 8.796875 9.70898438 C8.21679688 9.12568359 7.63671875 8.54238281 7.0390625 7.94140625 C6.50490723 7.40201416 5.97075195 6.86262207 5.42041016 6.30688477 C4.01347612 4.89153023 4.01347612 4.89153023 2 4 C2 13.9 2 23.8 2 34 C1.34 34 0.68 34 0 34 C0 22.78 0 11.56 0 0 Z " fill="#C7995B" transform="translate(72,195)"/>
<path d="M0 0 C1.32 0.33 2.64 0.66 4 1 C4 4.63 4 8.26 4 12 C4.66 12 5.32 12 6 12 C5.67 13.65 5.34 15.3 5 17 C4.34 17 3.68 17 3 17 C2.34 14.36 1.68 11.72 1 9 C-0.32 11.64 -1.64 14.28 -3 17 C-3.99 17 -4.98 17 -6 17 C-5.49487476 10.77012202 -2.67395877 5.54525767 0 0 Z " fill="#ACACAC" transform="translate(183,279)"/>
<path d="M0 0 C4.29 0 8.58 0 13 0 C13 0.99 13 1.98 13 3 C11.35 3.33 9.7 3.66 8 4 C6.515 10.435 6.515 10.435 5 17 C3.68 17 2.36 17 1 17 C1.41153737 12.02906176 1.79600832 7.55491614 4 3 C3.01 3.33 2.02 3.66 1 4 C0.67 2.68 0.34 1.36 0 0 Z " fill="#9D9D9D" transform="translate(353,279)"/>
<path d="M0 0 C5.37647647 5.2271299 9.69105615 10.89566288 14 17 C14.66 15.68 15.32 14.36 16 13 C16.66 13 17.32 13 18 13 C18.33 12.34 18.66 11.68 19 11 C18.46019653 14.39305036 17.83449189 17.66203244 17 21 C20.96 21 24.92 21 29 21 C29 21.33 29 21.66 29 22 C19.1 22 9.2 22 -1 22 C-1 21.67 -1 21.34 -1 21 C3.62 21 8.24 21 13 21 C9.8843123 15.03955396 5.9456683 9.86725425 1.828125 4.57421875 C0 2 0 2 0 0 Z " fill="#709090" transform="translate(405,251)"/>
<path d="M0 0 C1.32 0 2.64 0 4 0 C3.01 4.62 2.02 9.24 1 14 C2.98 14 4.96 14 7 14 C7 14.99 7 15.98 7 17 C3.37 17 -0.26 17 -4 17 C-3.52434234 14.54093963 -3.04463948 12.08279007 -2.5625 9.625 C-2.42779297 8.92632812 -2.29308594 8.22765625 -2.15429688 7.5078125 C-1.11328125 2.2265625 -1.11328125 2.2265625 0 0 Z " fill="#8C8C8C" transform="translate(438,279)"/>
<path d="M0 0 C1.87326751 1.65712126 2.85587648 3.15882365 4 5.37109375 C4.97352852 7.3484209 4.97352852 7.3484209 8 8 C8 8.66 8 9.32 8 10 C9.98 10 11.96 10 14 10 C14 10.33 14 10.66 14 11 C6.8444694 11.48512072 6.8444694 11.48512072 3.0625 9.3125 C1 7 1 7 0 2 C-4.29 2 -8.58 2 -13 2 C-11.1611977 9.78786856 -8.7087059 14.40077613 -3 20 C-6 20 -6 20 -7.53515625 18.64453125 C-12.47638076 12.71758932 -14.31060422 8.92040751 -14 1 C-9.35946728 -0.54684424 -4.8248827 -0.89847523 0 0 Z " fill="#D8E8E8" transform="translate(234,251)"/>
<path d="M0 0 C3.04730024 2.52639421 3.90269198 5.07951467 5.0625 8.8125 C5.38347656 9.82957031 5.70445312 10.84664062 6.03515625 11.89453125 C6.35355469 12.91933594 6.67195313 13.94414062 7 15 C7.66 16.98 8.32 18.96 9 21 C3.72 21 -1.56 21 -7 21 C-5.62820313 13.51747162 -3.07836721 6.94395046 0 0 Z M0 3 C-0.18175781 3.556875 -0.36351562 4.11375 -0.55078125 4.6875 C-2.24862185 9.84196991 -4.06422235 14.93010615 -6 20 C-1.71 20 2.58 20 7 20 C6.27511624 17.10046497 5.49765531 14.32969274 4.5625 11.5 C4.31628906 10.7471875 4.07007813 9.994375 3.81640625 9.21875 C3.01847414 7.05020724 2.07324109 5.04426873 1 3 C0.67 3 0.34 3 0 3 Z " fill="#C6DBDB" transform="translate(450,229)"/>
<path d="M0 0 C0.33 2.64 0.66 5.28 1 8 C3.87450983 8.25048636 3.87450983 8.25048636 7 8 C8.68798827 6.56249809 8.68798827 6.56249809 10 5 C10.99 5 11.98 5 13 5 C13 5.99 13 6.98 13 8 C12.34 8 11.68 8 11 8 C11 8.66 11 9.32 11 10 C7.3100508 12.45996614 4.28340287 12.67949564 0 12 C-2.5625 10.4375 -2.5625 10.4375 -4 8 C-3.875 4.3125 -3.875 4.3125 -3 1 C-1 0 -1 0 0 0 Z " fill="#979797" transform="translate(230,284)"/>
<path d="M0 0 C0.33 0 0.66 0 1 0 C1 9.9 1 19.8 1 30 C1.99 30.33 2.98 30.66 4 31 C1.03 33.475 1.03 33.475 -2 36 C-2.38027344 35.29359375 -2.76054688 34.5871875 -3.15234375 33.859375 C-5.26945731 30.5829963 -7.78629699 27.95688913 -10.5625 25.25 C-11.05685547 24.75628906 -11.55121094 24.26257813 -12.06054688 23.75390625 C-14.77811124 21.04064241 -14.77811124 21.04064241 -18 19 C-17.505 17.515 -17.505 17.515 -17 16 C-11.72 21.28 -6.44 26.56 -1 32 C-0.67 21.44 -0.34 10.88 0 0 Z " fill="#C19D67" transform="translate(100,289)"/>
<path d="M0 0 C5.28 0 10.56 0 16 0 C18.18761479 4.37522959 19.46679695 7.19898656 20.5 11.75 C21.99735533 20.98655262 21.99735533 20.98655262 26 29 C26.04080783 30.99958364 26.04254356 33.00045254 26 35 C24.11252226 32.1687834 23.30543185 30.13857456 22.34375 26.921875 C22.04339844 25.92542969 21.74304688 24.92898437 21.43359375 23.90234375 C21.12550781 22.86207031 20.81742187 21.82179687 20.5 20.75 C20.19191406 19.72519531 19.88382812 18.70039063 19.56640625 17.64453125 C18.00583693 12.44040095 16.47696486 7.22845562 15 2 C8.07 1.505 8.07 1.505 1 1 C1.33 2.65 1.66 4.3 2 6 C1.01 5.34 0.02 4.68 -1 4 C-0.67 2.68 -0.34 1.36 0 0 Z " fill="#DBEAEA" transform="translate(270,210)"/>
<path d="M0 0 C1.19921875 1.6796875 1.19921875 1.6796875 1.07421875 4.2421875 C0.19921875 6.6796875 0.19921875 6.6796875 -2.80078125 8.6796875 C-3.13078125 8.3496875 -3.46078125 8.0196875 -3.80078125 7.6796875 C-6.47136976 7.53853589 -9.12510363 7.63721643 -11.80078125 7.6796875 C-11.47078125 5.0396875 -11.14078125 2.3996875 -10.80078125 -0.3203125 C-9.36667757 -0.56985255 -7.92818053 -0.79423892 -6.48828125 -1.0078125 C-5.68777344 -1.13542969 -4.88726562 -1.26304687 -4.0625 -1.39453125 C-1.80078125 -1.3203125 -1.80078125 -1.3203125 0 0 Z M-7.80078125 2.6796875 C-8.13078125 3.9996875 -8.46078125 5.3196875 -8.80078125 6.6796875 C-7.15078125 6.6796875 -5.50078125 6.6796875 -3.80078125 6.6796875 C-3.47078125 5.3596875 -3.14078125 4.0396875 -2.80078125 2.6796875 C-4.45078125 2.6796875 -6.10078125 2.6796875 -7.80078125 2.6796875 Z " fill="#989898" transform="translate(428.80078125,279.3203125)"/>
<path d="M0 0 C0.33 0.99 0.66 1.98 1 3 C0.36263916 3.44593506 -0.27472168 3.89187012 -0.93139648 4.35131836 C-4.98678628 7.67547971 -8.04442571 10.61735368 -8.83642578 15.93017578 C-9.21581147 20.47359789 -9.14693299 25.00830694 -9.0625 29.5625 C-9.0655796 31.1595183 -9.07270695 32.75653418 -9.08398438 34.35351562 C-9.10268981 38.23722109 -9.06652814 42.11685758 -9 46 C-8.01 46.33 -7.02 46.66 -6 47 C-7.485 47.495 -7.485 47.495 -9 48 C-11.83951732 45.16048268 -10.54987269 35.64586823 -10.62475586 31.66577148 C-10.66621141 29.94576959 -10.72738103 28.22611719 -10.80932617 26.50756836 C-11.51541201 11.44974199 -11.51541201 11.44974199 -7.72509766 6.57763672 C-5.26861653 4.12028895 -2.84151339 1.99300369 0 0 Z " fill="#FEFCED" transform="translate(81,305)"/>
<path d="M0 0 C0 3.67819168 -0.76843318 4.22382655 -3.1875 6.875 C-3.77917969 7.53242188 -4.37085937 8.18984375 -4.98046875 8.8671875 C-7 11 -7 11 -9.58203125 13.20629883 C-12.56177053 16.64906504 -12.64760453 18.33540911 -12.70703125 22.83203125 C-12.73603516 24.12431641 -12.76503906 25.41660156 -12.79492188 26.74804688 C-12.8013102 28.10286219 -12.80716288 29.45768013 -12.8125 30.8125 C-12.83565748 32.1868884 -12.86102545 33.56124144 -12.88867188 34.93554688 C-12.94753342 38.29065515 -12.98382337 41.64445874 -13 45 C-13.33 45 -13.66 45 -14 45 C-16.43415638 16.25555556 -16.43415638 16.25555556 -10.8828125 8.82421875 C-7.61135476 5.34317137 -4.00849546 2.58200282 0 0 Z " fill="#E6994A" transform="translate(115,274)"/>
<path d="M0 0 C5.54226324 3.71497754 9.84779745 7.90015686 14.21484375 12.921875 C20.13050443 19.59316092 26.66010091 25.73597891 33 32 C32.505 32.99 32.505 32.99 32 34 C31.10168457 33.09644775 30.20336914 32.19289551 29.27783203 31.26196289 C25.95190731 27.91797077 22.62270092 24.57726249 19.29248047 21.23754883 C17.85017251 19.79020465 16.40876234 18.34196524 14.96826172 16.89282227 C12.90045428 14.81291822 10.82946499 12.73622963 8.7578125 10.66015625 C8.11192169 10.00910416 7.46603088 9.35805206 6.80056763 8.68727112 C6.20009613 8.08672409 5.59962463 7.48617706 4.98095703 6.86743164 C4.45245148 6.33670547 3.92394592 5.80597931 3.37942505 5.25917053 C2.00317355 3.88795833 2.00317355 3.88795833 0 3 C0 2.01 0 1.02 0 0 Z " fill="#FEF8E6" transform="translate(73,230)"/>
<path d="M0 0 C1 3 1 3 0.0625 5.1875 C-0.288125 5.785625 -0.63875 6.38375 -1 7 C-1.66 7 -2.32 7 -3 7 C-3.33 7.99 -3.66 8.98 -4 10 C-12.5841373 15.67061462 -22.02729974 15.5047857 -31.75 13.66796875 C-34 13 -34 13 -36 11 C-35.410979 11.05124023 -34.82195801 11.10248047 -34.21508789 11.15527344 C-31.49892922 11.37769568 -28.78138615 11.56399974 -26.0625 11.75 C-24.67321289 11.87181641 -24.67321289 11.87181641 -23.25585938 11.99609375 C-15.50469325 12.48564108 -9.6249995 10.97435856 -3.5625 6 C-2.0542672 4.06946201 -0.96359966 2.2483992 0 0 Z " fill="#B0C8C9" transform="translate(267,261)"/>
<path d="M0 0 C4.95 0 9.9 0 15 0 C16.20985296 2.8902043 17.4181893 5.78105702 18.6171875 8.67578125 C19.48491046 10.76174804 20.36349554 12.84326449 21.2578125 14.91796875 C21.62648438 15.79066406 21.99515625 16.66335937 22.375 17.5625 C22.88160156 18.74005859 22.88160156 18.74005859 23.3984375 19.94140625 C24 22 24 22 23 25 C19.59333439 17.78177819 16.64137374 10.53280659 14 3 C9.38 3 4.76 3 0 3 C0 2.01 0 1.02 0 0 Z " fill="#CFE0E0" transform="translate(443,210)"/>
<path d="M0 0 C0.33 1.32 0.66 2.64 1 4 C4.465 3.505 4.465 3.505 8 3 C8.33 5.97 8.66 8.94 9 12 C7.68 12 6.36 12 5 12 C4.67 10.02 4.34 8.04 4 6 C3.01 6 2.02 6 1 6 C0.67 7.98 0.34 9.96 0 12 C-1.32 12 -2.64 12 -4 12 C-2.87204037 7.89100419 -1.66489182 3.92438786 0 0 Z " fill="#6A6A6A" transform="translate(293,284)"/>
<path d="M0 0 C0.99 0.33 1.98 0.66 3 1 C4.50126829 0.94398253 6.0015048 0.85703537 7.5 0.75 C14.92263187 0.67381463 21.35086275 3.53148574 26.75 8.5625 C28 11 28 11 27.75 13.3125 C27.5025 13.869375 27.255 14.42625 27 15 C26.4225 14.071875 25.845 13.14375 25.25 12.1875 C22.12433309 7.75947187 19.15983405 5.59072604 14 4 C10.55860892 3.75821436 7.13515316 3.8116509 3.6875 3.875 C2.75615234 3.88402344 1.82480469 3.89304688 0.86523438 3.90234375 C-1.4234436 3.92581737 -3.71158672 3.95865271 -6 4 C-4 2.66666667 -2 1.33333333 0 0 Z " fill="#CEDEDE" transform="translate(238,208)"/>
<path d="M0 0 C0.66 0.66 1.32 1.32 2 2 C2.66 1.67 3.32 1.34 4 1 C3.67 2.98 3.34 4.96 3 7 C1.68 7 0.36 7 -1 7 C-1.33 6.01 -1.66 5.02 -2 4 C-5.73487777 4.4979837 -7.81237635 4.87491756 -11 7 C-11.66 6.67 -12.32 6.34 -13 6 C-12.06896676 3.67241689 -11.34617872 2.25642868 -9.3125 0.75 C-6.10631102 -0.28984508 -3.34490193 -0.24777051 0 0 Z " fill="#A1A1A1" transform="translate(241,279)"/>
<path d="M0 0 C1.32 0 2.64 0 4 0 C2.07289294 11.52164009 2.07289294 11.52164009 0 17 C-0.99 17 -1.98 17 -3 17 C-2.67 14.36 -2.34 11.72 -2 9 C-2.66 8.67 -3.32 8.34 -4 8 C-3.34 7.67 -2.68 7.34 -2 7 C-1.26924352 4.6859378 -0.59861742 2.35171131 0 0 Z " fill="#A5A5A5" transform="translate(432,279)"/>
<path d="M0 0 C0.99 0 1.98 0 3 0 C2.32418477 6.08233706 1.26361972 12.01314152 0 18 C-1.32 17.67 -2.64 17.34 -4 17 C-3.35729017 11.0870696 -1.80996216 5.65755469 0 0 Z " fill="#B3B3B3" transform="translate(381,279)"/>
<path d="M0 0 C0.99 0 1.98 0 3 0 C2.35729017 5.9129304 0.80996216 11.34244531 -1 17 C-1.99 17 -2.98 17 -4 17 C-3.45018084 10.95198929 -2.09570426 5.69398894 0 0 Z " fill="#ABABAB" transform="translate(176,279)"/>
<path d="M0 0 C3.63 0 7.26 0 11 0 C11 0.33 11 0.66 11 1 C9.35 1 7.7 1 6 1 C5.95101563 1.66386719 5.90203125 2.32773437 5.8515625 3.01171875 C5.10896309 11.78207381 5.10896309 11.78207381 3 16 C2.01 16 1.02 16 0 16 C1 7.42857143 1 7.42857143 2 4 C2.66 4 3.32 4 4 4 C4 3.01 4 2.02 4 1 C2.68 0.67 1.36 0.34 0 0 Z " fill="#ABABAB" transform="translate(455,280)"/>
<path d="M0 0 C0.99 0 1.98 0 3 0 C1.07289294 11.52164009 1.07289294 11.52164009 -1 17 C-1.99 17 -2.98 17 -4 17 C-3.45018084 10.95198929 -2.09570426 5.69398894 0 0 Z " fill="#ADADAD" transform="translate(450,279)"/>
<path d="M0 0 C1.32 0 2.64 0 4 0 C4.33 3.3 4.66 6.6 5 10 C2.29120665 11.35439668 -0.00933268 11.06501451 -3 11 C-3.75 8.875 -3.75 8.875 -4 6 C-2.3125 2.6875 -2.3125 2.6875 0 0 Z M0 6 C-0.66 7.32 -1.32 8.64 -2 10 C-0.68 9.67 0.64 9.34 2 9 C1.34 8.01 0.68 7.02 0 6 Z " fill="#A6A6A6" transform="translate(219,279)"/>
<path d="M0 0 C0.33 0 0.66 0 1 0 C1.66 2.31 2.32 4.62 3 7 C5.97 7 8.94 7 12 7 C11.67 7.99 11.34 8.98 11 10 C5.08647141 12.34309623 5.08647141 12.34309623 1.625 11.25 C0 10 0 10 -1 8 C-1.125 4.4375 -1.125 4.4375 -1 1 C-0.67 0.67 -0.34 0.34 0 0 Z " fill="#7F7F7F" transform="translate(274,285)"/>
<path d="M0 0 C0.99 0 1.98 0 3 0 C3.20496094 1.13179688 3.40992188 2.26359375 3.62109375 3.4296875 C3.89306972 4.91148761 4.16521387 6.39325685 4.4375 7.875 C4.57220703 8.62136719 4.70691406 9.36773437 4.84570312 10.13671875 C5.54536611 14.18533378 5.54536611 14.18533378 7 18 C5.35 17.67 3.7 17.34 2 17 C2.185625 16.195625 2.37125 15.39125 2.5625 14.5625 C2.706875 13.716875 2.85125 12.87125 3 12 C1.87465895 10.64381501 1.87465895 10.64381501 -1.0625 10.9375 C-2.031875 10.958125 -3.00125 10.97875 -4 11 C-3.67 10.01 -3.34 9.02 -3 8 C-2.67 8.66 -2.34 9.32 -2 10 C-1.01 10 -0.02 10 1 10 C0.34 8.35 -0.32 6.7 -1 5 C-0.34 4.67 0.32 4.34 1 4 C1.33 3.01 1.66 2.02 2 1 C1.34 0.67 0.68 0.34 0 0 Z " fill="#BFBFBF" transform="translate(408,279)"/>
<path d="M0 0 C1.10844919 3.32534757 0.84454356 5.62182575 0 9 C-0.66 9 -1.32 9 -2 9 C-2.12375 9.7425 -2.2475 10.485 -2.375 11.25 C-2.96646509 13.85244639 -3.81696152 15.63392305 -5 18 C-5.309375 19.175625 -5.61875 20.35125 -5.9375 21.5625 C-6.96786228 24.89602503 -7.53501009 25.79024065 -10 28 C-8.36959185 21.98922864 -6.72852643 15.98336072 -5 10 C-4.34 10 -3.68 10 -3 10 C-2.814375 8.9171875 -2.814375 8.9171875 -2.625 7.8125 C-2.0095069 5.04278106 -1.11555626 2.6029646 0 0 Z " fill="#B9CECF" transform="translate(435,231)"/>
<path d="M0 0 C0.99 0 1.98 0 3 0 C1.71232877 12.57534247 1.71232877 12.57534247 0 16 C-0.66 16 -1.32 16 -2 16 C-3.70701221 10.10304872 -1.95193635 5.58011183 0 0 Z " fill="#C1C1C1" transform="translate(326,279)"/>
<path d="M0 0 C0.33 0.99 0.66 1.98 1 3 C1.66 3.33 2.32 3.66 3 4 C2.34 5.32 1.68 6.64 1 8 C-3.62 8 -8.24 8 -13 8 C-13.99 5.69 -14.98 3.38 -16 1 C-15.01 1.33 -14.02 1.66 -13 2 C-13 3.32 -13 4.64 -13 6 C-8.71 6 -4.42 6 0 6 C0 4.02 0 2.04 0 0 Z " fill="#D7E7E7" transform="translate(266,224)"/>
<path d="M0 0 C3 3.625 3 3.625 3 7 C2.54284064 8.57556706 2.03895471 10.13800522 1.5 11.6875 C1.08234375 12.89986328 1.08234375 12.89986328 0.65625 14.13671875 C0.4396875 14.75160156 0.223125 15.36648438 0 16 C-0.99 16 -1.98 16 -3 16 C-2.30834212 10.58201328 -1.24200752 5.3177215 0 0 Z " fill="#A6A6A6" transform="translate(386,280)"/>
<path d="M0 0 C1.875 1.5 1.875 1.5 3 3 C2.67 3.99 2.34 4.98 2 6 C1.01 6 0.02 6 -1 6 C-1.33 5.34 -1.66 4.68 -2 4 C-2.99 4 -3.98 4 -5 4 C-5 4.99 -5 5.98 -5 7 C-5.66 7 -6.32 7 -7 7 C-9 4 -9 4 -10 2 C-6.60268371 -0.09065618 -3.95730595 -0.42098999 0 0 Z " fill="#A3A3A3" transform="translate(321,279)"/>
<path d="M0 0 C1.98 0.495 1.98 0.495 4 1 C3.67 5.62 3.34 10.24 3 15 C2.01 15.33 1.02 15.66 0 16 C0.33 12.37 0.66 8.74 1 5 C0.34 4.67 -0.32 4.34 -1 4 C-0.67 2.68 -0.34 1.36 0 0 Z " fill="#7D7D7D" transform="translate(195,279)"/>
<path d="M0 0 C0.99 0 1.98 0 3 0 C3 2.64 3 5.28 3 8 C2.67 7.01 2.34 6.02 2 5 C1.34 5 0.68 5 0 5 C-0.33 6.32 -0.66 7.64 -1 9 C-1.66 9 -2.32 9 -3 9 C-3.33 9.66 -3.66 10.32 -4 11 C-4.66 11 -5.32 11 -6 11 C-4.54923295 6.88949336 -2.65754275 3.46285873 0 0 Z " fill="#828383" transform="translate(370,279)"/>
<path d="M0 0 C0.99 0 1.98 0 3 0 C3 3.63 3 7.26 3 11 C3.66 11 4.32 11 5 11 C4.67 12.65 4.34 14.3 4 16 C3.34 16 2.68 16 2 16 C1.66388432 13.89627599 1.33120054 11.79200343 1 9.6875 C0.814375 8.51574219 0.62875 7.34398437 0.4375 6.13671875 C0 3 0 3 0 0 Z " fill="#7B7B7B" transform="translate(184,280)"/>
<path d="M0 0 C4.93170293 4.79471118 8.98551593 9.8832399 12.8515625 15.546875 C13.95497759 17.15433624 13.95497759 17.15433624 16 18 C16 18.99 16 19.98 16 21 C12.58507934 19.86169311 12.11505369 19.14822803 10.1171875 16.2890625 C9.58996094 15.53882813 9.06273437 14.78859375 8.51953125 14.015625 C7.97683594 13.22671875 7.43414062 12.4378125 6.875 11.625 C6.32457031 10.84382813 5.77414062 10.06265625 5.20703125 9.2578125 C1.14132408 3.42397223 1.14132408 3.42397223 0 0 Z " fill="#E2F0F0" transform="translate(405,251)"/>
<path d="M0 0 C1.65 0 3.3 0 5 0 C3.68 4.29 2.36 8.58 1 13 C0.01 12.34 -0.98 11.68 -2 11 C-1.34 7.37 -0.68 3.74 0 0 Z " fill="#A8A9A8" transform="translate(336,279)"/>
<path d="M0 0 C-1.66751148 3.94139078 -4.22710649 6.7892812 -7 10 C-7.33 9.34 -7.66 8.68 -8 8 C-8.66 8 -9.32 8 -10 8 C-8.45164495 3.35493484 -5.01418035 0 0 0 Z " fill="#C1C1C1" transform="translate(481,279)"/>
<path d="M0 0 C7.37042925 -0.36248013 7.37042925 -0.36248013 10.0625 1.1875 C11.38135516 3.73728665 10.7975116 5.31746098 10 8 C9.34 8 8.68 8 8 8 C7.67 6.35 7.34 4.7 7 3 C4.58380177 2.74969023 4.58380177 2.74969023 2 3 C1.34 3.99 0.68 4.98 0 6 C0 4.02 0 2.04 0 0 Z " fill="#7A7A7A" transform="translate(203,279)"/>
<path d="M0 0 C1.39456452 0.00667256 2.78911118 0.01863093 4.18359375 0.03515625 C4.89451172 0.03966797 5.60542969 0.04417969 6.33789062 0.04882812 C8.09899388 0.06064761 9.86005411 0.07858362 11.62109375 0.09765625 C11.29109375 1.08765625 10.96109375 2.07765625 10.62109375 3.09765625 C9.7290625 3.06285156 8.83703125 3.02804688 7.91796875 2.9921875 C6.16226562 2.95158203 6.16226562 2.95158203 4.37109375 2.91015625 C3.2109375 2.87535156 2.05078125 2.84054688 0.85546875 2.8046875 C-2.60159032 3.11782691 -3.89456188 3.75474733 -6.37890625 6.09765625 C-4.07899618 0.11789006 -4.07899618 0.11789006 0 0 Z " fill="#487273" transform="translate(405.37890625,210.90234375)"/>
<path d="M0 0 C0.99 0 1.98 0 3 0 C3 0.99 3 1.98 3 3 C2.34 3 1.68 3 1 3 C1 3.66 1 4.32 1 5 C-2.08888522 7.05925681 -2.70935927 7.2390374 -6.1875 7.125 C-8.0746875 7.063125 -8.0746875 7.063125 -10 7 C-10 6.34 -10 5.68 -10 5 C-8.906875 4.731875 -7.81375 4.46375 -6.6875 4.1875 C-3.21307994 3.06861896 -2.30547678 2.53602446 0 0 Z " fill="#727272" transform="translate(240,289)"/>
<path d="M0 0 C1.32 0.33 2.64 0.66 4 1 C4 1.33 4 1.66 4 2 C6.97 2.495 6.97 2.495 10 3 C9.67 3.99 9.34 4.98 9 6 C5.625 6.125 5.625 6.125 2 6 C1.34 5.34 0.68 4.68 0 4 C0 2.68 0 1.36 0 0 Z " fill="#8B8B8B" transform="translate(338,290)"/>
<path d="M0 0 C5.28 0 10.56 0 16 0 C16.99 1.98 17.98 3.96 19 6 C18.01 6.495 18.01 6.495 17 7 C16.34 5.35 15.68 3.7 15 2 C8.07 1.505 8.07 1.505 1 1 C1.33 2.65 1.66 4.3 2 6 C1.01 5.34 0.02 4.68 -1 4 C-0.67 2.68 -0.34 1.36 0 0 Z " fill="#EAF5F5" transform="translate(270,210)"/>
<path d="M0 0 C2 2 2 2 2.1953125 4.1640625 C2.16050781 5.38222656 2.16050781 5.38222656 2.125 6.625 C2.10695312 7.44226563 2.08890625 8.25953125 2.0703125 9.1015625 C2.04710937 9.72804688 2.02390625 10.35453125 2 11 C4.97 11.495 4.97 11.495 8 12 C8 12.33 8 12.66 8 13 C5.36 13 2.72 13 0 13 C0 8.71 0 4.42 0 0 Z " fill="#B4CCCC" transform="translate(188,248)"/>
<path d="M0 0 C0.33 0.99 0.66 1.98 1 3 C-1.97 5.97 -4.94 8.94 -8 12 C-8.33 11.01 -8.66 10.02 -9 9 C-6.03 6.03 -3.06 3.06 0 0 Z " fill="#FBEED8" transform="translate(81,305)"/>
<path d="M0 0 C2 1 2 1 3 3 C1.35 4.32 -0.3 5.64 -2 7 C-2.33 6.67 -2.66 6.34 -3 6 C-3 8.64 -3 11.28 -3 14 C-3.66 14 -4.32 14 -5 14 C-5.78774617 5.96498906 -5.78774617 5.96498906 -2.5 1.9375 C-1.2625 0.9784375 -1.2625 0.9784375 0 0 Z " fill="#AAAAAA" transform="translate(277,280)"/>
<path d="M0 0 C0.33 0 0.66 0 1 0 C1.125 7.75 1.125 7.75 0 10 C-0.99 10 -1.98 10 -3 10 C-2.25 2.25 -2.25 2.25 0 0 Z " fill="#929292" transform="translate(449,286)"/>
<path d="M0 0 C2.31 0 4.62 0 7 0 C7.66 2.31 8.32 4.62 9 7 C7.68 7 6.36 7 5 7 C4.67 5.02 4.34 3.04 4 1 C3.01 1 2.02 1 1 1 C0.67 1.66 0.34 2.32 0 3 C0 2.01 0 1.02 0 0 Z " fill="#A9A9A9" transform="translate(293,289)"/>
<path d="M0 0 C1.32 0 2.64 0 4 0 C3.34 3.3 2.68 6.6 2 10 C1.01 9.01 0.02 8.02 -1 7 C-0.6875 3.3125 -0.6875 3.3125 0 0 Z " fill="#B4B4B4" transform="translate(438,279)"/>
<path d="M0 0 C0.99 0 1.98 0 3 0 C2.33035714 7.09821429 2.33035714 7.09821429 -1 10 C-1.02689216 8.52093108 -1.04634621 7.04172517 -1.0625 5.5625 C-1.07410156 4.73878906 -1.08570313 3.91507812 -1.09765625 3.06640625 C-1 1 -1 1 0 0 Z " fill="#969696" transform="translate(176,279)"/>
<path d="M0 0 C1.07310858 3.27185553 0.89263102 5.42947592 0.0625 8.75 C-0.13214844 9.54921875 -0.32679688 10.3484375 -0.52734375 11.171875 C-0.76130859 12.07679688 -0.76130859 12.07679688 -1 13 C-1.66 13 -2.32 13 -3 13 C-5.125 8.375 -5.125 8.375 -4 5 C-3.67 5.66 -3.34 6.32 -3 7 C-2.01 4.69 -1.02 2.38 0 0 Z " fill="#BDD4D4" transform="translate(337,239)"/>
<path d="M0 0 C-0.875 6.75 -0.875 6.75 -2 9 C-2.99 9 -3.98 9 -5 9 C-4.38709677 3.48387097 -4.38709677 3.48387097 -2.5 1.125 C-1 0 -1 0 0 0 Z " fill="#969696" transform="translate(182,287)"/>
<path d="M0 0 C0.33 0.66 0.66 1.32 1 2 C3.64 2 6.28 2 9 2 C9 2.33 9 2.66 9 3 C7.88625 3.103125 6.7725 3.20625 5.625 3.3125 C4.42875 3.539375 3.2325 3.76625 2 4 C1.01 5.485 1.01 5.485 0 7 C-0.99 7 -1.98 7 -3 7 C-2.38722388 4.03824877 -1.74627478 2.61941217 0 0 Z " fill="#A6A6A6" transform="translate(401,289)"/>
<path d="M0 0 C0.99 0 1.98 0 3 0 C2.125 7.625 2.125 7.625 1 11 C0.34 11 -0.32 11 -1 11 C-0.67 7.37 -0.34 3.74 0 0 Z " fill="#8F8F8F" transform="translate(381,279)"/>
<path d="M0 0 C1 3 1 3 0.0625 5.1875 C-0.288125 5.785625 -0.63875 6.38375 -1 7 C-1.66 7 -2.32 7 -3 7 C-3.33 7.99 -3.66 8.98 -4 10 C-4.99 10.66 -5.98 11.32 -7 12 C-7.99 11.67 -8.98 11.34 -10 11 C-9.44570313 10.54109375 -8.89140625 10.0821875 -8.3203125 9.609375 C-7.59585937 8.99578125 -6.87140625 8.3821875 -6.125 7.75 C-5.04605469 6.84507812 -5.04605469 6.84507812 -3.9453125 5.921875 C-2.02947882 4.02912366 -1.03550955 2.46342273 0 0 Z " fill="#D7E7E7" transform="translate(267,261)"/>
<path d="M0 0 C0.33 0 0.66 0 1 0 C0.50269348 4.97306516 -0.55302334 8.63799813 -3 13 C-3.93045933 10.44855176 -4.08564091 9.25993522 -3.22265625 6.640625 C-2.83980469 5.85171875 -2.45695312 5.0628125 -2.0625 4.25 C-1.68222656 3.45078125 -1.30195313 2.6515625 -0.91015625 1.828125 C-0.60980469 1.22484375 -0.30945313 0.6215625 0 0 Z " fill="#D9E8E8" transform="translate(308,258)"/>
<path d="M0 0 C0.99 0 1.98 0 3 0 C4.42944945 2.35438733 5.08661261 3.48032433 4.625 6.25 C4.41875 6.8275 4.2125 7.405 4 8 C2.68 7.34 1.36 6.68 0 6 C0 4.02 0 2.04 0 0 Z " fill="#70706F" transform="translate(387,279)"/>
<path d="M0 0 C3.63 0 7.26 0 11 0 C11 0.33 11 0.66 11 1 C9.35 1 7.7 1 6 1 C6 2.65 6 4.3 6 6 C5.34 6 4.68 6 4 6 C3.67 6.99 3.34 7.98 3 9 C3.33 6.36 3.66 3.72 4 1 C2.68 0.67 1.36 0.34 0 0 Z " fill="#4E4F4E" transform="translate(455,280)"/>
<path d="M0 0 C2.3223428 2.8762349 3.86565842 5.63780422 5.25 9.0625 C5.60578125 9.91972656 5.9615625 10.77695313 6.328125 11.66015625 C7 14 7 14 6 17 C2.93197901 11.37529486 1.10938353 6.30596952 0 0 Z " fill="#DFEDED" transform="translate(325,227)"/>
<path d="M0 0 C0.66 0 1.32 0 2 0 C2.6875 2.25 2.6875 2.25 3 5 C1.5625 7.3125 1.5625 7.3125 0 9 C-0.66 8.67 -1.32 8.34 -2 8 C-2 6 -2 4 -2 2 C-1.34 1.67 -0.68 1.34 0 1 C0 0.67 0 0.34 0 0 Z " fill="#BCBBBB" transform="translate(302,280)"/>
<path d="M0 0 C3.64939813 0.91234953 5.71592813 1.72321202 8.4375 4.375 C10 7 10 7 9.75 9.3125 C9.5025 9.869375 9.255 10.42625 9 11 C8.443125 10.113125 7.88625 9.22625 7.3125 8.3125 C5.22146208 5.15720622 2.75433765 2.60131889 0 0 Z " fill="#E0EDED" transform="translate(256,212)"/>
<path d="M0 0 C2 2 2 2 2.1953125 3.9453125 C2.13020833 5.96354167 2.06510417 7.98177083 2 10 C1.34 9.67 0.68 9.34 0 9 C-0.73075648 6.6859378 -1.40138258 4.35171131 -2 2 C-1.34 1.34 -0.68 0.68 0 0 Z " fill="#929292" transform="translate(392,285)"/>
<path d="M0 0 C0.66 0.66 1.32 1.32 2 2 C0.35 5.63 -1.3 9.26 -3 13 C-4.08644535 8.6542186 -3.90680911 8.05039452 -2.0625 4.25 C-1.68222656 3.45078125 -1.30195313 2.6515625 -0.91015625 1.828125 C-0.60980469 1.22484375 -0.30945313 0.6215625 0 0 Z " fill="#D4E5E5" transform="translate(313,245)"/>
<path d="M0 0 C0.33 0 0.66 0 1 0 C1.125 6.625 1.125 6.625 0 10 C-0.99 10 -1.98 10 -3 10 C-3 8.68 -3 7.36 -3 6 C-2.34 6 -1.68 6 -1 6 C-0.67 4.02 -0.34 2.04 0 0 Z " fill="#828282" transform="translate(249,286)"/>
<path d="M0 0 C2.29013653 3.4352048 2.17842973 4.985331 2 9 C1.34 9 0.68 9 0 9 C0 7.68 0 6.36 0 5 C-2.64 5 -5.28 5 -8 5 C-8 4.67 -8 4.34 -8 4 C-5.36 4 -2.72 4 0 4 C0 2.68 0 1.36 0 0 Z " fill="#373737" transform="translate(222,286)"/>
<path d="M0 0 C2.31 0 4.62 0 7 0 C7.33 0.99 7.66 1.98 8 3 C5.03 3 2.06 3 -1 3 C-0.67 2.01 -0.34 1.02 0 0 Z " fill="#797879" transform="translate(279,279)"/>
<path d="M0 0 C0.99 0.33 1.98 0.66 3 1 C3 2.98 3 4.96 3 7 C1.68 7.33 0.36 7.66 -1 8 C-1.33 7.01 -1.66 6.02 -2 5 C-1.34 4.01 -0.68 3.02 0 2 C0 1.34 0 0.68 0 0 Z " fill="#B7B7B7" transform="translate(348,287)"/>
<path d="M0 0 C1.485 0.99 1.485 0.99 3 2 C3.1875 5.625 3.1875 5.625 3 9 C1.68 8.67 0.36 8.34 -1 8 C-0.67 5.36 -0.34 2.72 0 0 Z " fill="#BCBCBC" transform="translate(261,288)"/>
<path d="M0 0 C0.0825 0.61875 0.165 1.2375 0.25 1.875 C0.81258459 4.18437567 0.81258459 4.18437567 3.0625 5.25 C3.701875 5.4975 4.34125 5.745 5 6 C3.02 6 1.04 6 -1 6 C-1.33 4.35 -1.66 2.7 -2 1 C-1.34 0.67 -0.68 0.34 0 0 Z " fill="#727272" transform="translate(313,282)"/>
<path d="M0 0 C0.66 0 1.32 0 2 0 C3 6.625 3 6.625 3 10 C2.01 10.495 2.01 10.495 1 11 C0.34 10.34 -0.32 9.68 -1 9 C-0.67 8.34 -0.34 7.68 0 7 C0.04022391 4.6670134 0.04320247 2.33293334 0 0 Z " fill="#B6B6B6" transform="translate(285,282)"/>
<path d="M0 0 C2.375 0.1875 2.375 0.1875 5 1 C6.3125 3.5625 6.3125 3.5625 7 6 C4.69 5.34 2.38 4.68 0 4 C0 2.68 0 1.36 0 0 Z " fill="#797979" transform="translate(343,285)"/>
<path d="M0 0 C1.31611677 0.95336021 2.62778961 1.91285774 3.9375 2.875 C4.66839844 3.40867188 5.39929688 3.94234375 6.15234375 4.4921875 C8 6 8 6 9 8 C5.12793601 7.42636089 2.81534937 5.65894107 0 3 C0 2.01 0 1.02 0 0 Z " fill="#FCEDD6" transform="translate(73,230)"/>
<path d="M0 0 C1 1.33333333 2 2.66666667 3 4 C3.5775 4.680625 4.155 5.36125 4.75 6.0625 C5.1625 6.701875 5.575 7.34125 6 8 C5.67 8.99 5.34 9.98 5 11 C4.15504811 9.92570402 3.32445142 8.84010798 2.5 7.75 C2.0359375 7.14671875 1.571875 6.5434375 1.09375 5.921875 C0 4 0 4 0 0 Z " fill="#E8F3F3" transform="translate(399,240)"/>
<path d="M0 0 C1.10844919 3.32534757 0.84454356 5.62182575 0 9 C-0.66 9 -1.32 9 -2 9 C-2.33 9.99 -2.66 10.98 -3 12 C-3.34833144 7.12335991 -2.41685712 4.22949995 0 0 Z " fill="#A7C0C1" transform="translate(435,231)"/>
<path d="M0 0 C1.31223496 3.93670488 0.24296256 6.12488144 -1 10 C-1.99 9.67 -2.98 9.34 -4 9 C-3.34 8.67 -2.68 8.34 -2 8 C-2.04125 7.236875 -2.0825 6.47375 -2.125 5.6875 C-2 3 -2 3 0 0 Z " fill="#B9CDCE" transform="translate(442,213)"/>
<path d="M0 0 C1.0625 1.875 1.0625 1.875 2 4 C1.67 4.66 1.34 5.32 1 6 C-0.32 6 -1.64 6 -3 6 C-1.125 1.125 -1.125 1.125 0 0 Z " fill="#ABABAB" transform="translate(363,290)"/>
<path d="M0 0 C0 0.99 0 1.98 0 3 C-0.66 3 -1.32 3 -2 3 C-2 3.66 -2 4.32 -2 5 C-3.32 4.34 -4.64 3.68 -6 3 C-3.375 0 -3.375 0 0 0 Z " fill="#B4B4B4" transform="translate(243,289)"/>
<path d="M0 0 C0.99 0 1.98 0 3 0 C1.95125002 2.62187494 1.35068687 3.79371361 -1.125 5.25 C-1.74375 5.4975 -2.3625 5.745 -3 6 C-2.42655063 3.13275314 -2.1385485 2.1385485 0 0 Z " fill="#9D9D9D" transform="translate(478,279)"/>
<path d="M0 0 C0.99 0 1.98 0 3 0 C2.625 2.9375 2.625 2.9375 2 6 C1.01 6.495 1.01 6.495 0 7 C0 4.69 0 2.38 0 0 Z " fill="#8A8A8A" transform="translate(326,279)"/>
<path d="M0 0 C0.6875 1.8125 0.6875 1.8125 1 4 C-0.4375 5.75 -0.4375 5.75 -2 7 C-2.33 5.02 -2.66 3.04 -3 1 C-2.01 0.67 -1.02 0.34 0 0 Z " fill="#DEEDED" transform="translate(299,244)"/>
<path d="M0 0 C0.33 0.66 0.66 1.32 1 2 C1.66 2 2.32 2 3 2 C3 4.64 3 7.28 3 10 C0.70366176 6.55549263 0.45983515 4.06187717 0 0 Z " fill="#A8C1C1" transform="translate(280,241)"/>
<path d="M0 0 C3 1 3 1 3 1 Z " fill="#FEFEFE" transform="translate(231,291)"/>
<path d="M0 0 C0.66 0.66 1.32 1.32 2 2 C1.34 2 0.68 2 0 2 C0 1.34 0 0.68 0 0 Z " fill="#FDFDFD" transform="translate(233,288)"/>
<path d="M0 0 C0.66 0.66 1.32 1.32 2 2 C1.34 2 0.68 2 0 2 C0 1.34 0 0.68 0 0 Z " fill="#FEFEFE" transform="translate(465,284)"/>
<path d="M0 0 C3 1 3 1 3 1 Z " fill="#FEFEFE" transform="translate(280,284)"/>
<path d="M0 0 C3 1 3 1 3 1 Z " fill="#FEFFFD" transform="translate(373,275)"/>
<path d="" fill="#FEFFFD" transform="translate(0,0)"/>
<path d="M0 0 C2 1 2 1 2 1 Z " fill="#FEFEFE" transform="translate(396,297)"/>
<path d="M0 0 C2 1 2 1 2 1 Z " fill="#FEFEFE" transform="translate(228,297)"/>
<path d="M0 0 C2 1 2 1 2 1 Z " fill="#FDFDFD" transform="translate(458,296)"/>
<path d="" fill="#FEFEFE" transform="translate(0,0)"/>
<path d="" fill="#FEFEFE" transform="translate(0,0)"/>
<path d="" fill="#FEFDFD" transform="translate(0,0)"/>
<path d="M0 0 C2 1 2 1 2 1 Z " fill="#FEFFFD" transform="translate(289,280)"/>
<path d="M0 0 C2 1 2 1 2 1 Z " fill="#FEFFFD" transform="translate(429,279)"/>
<path d="M0 0 C2 1 2 1 2 1 Z " fill="#FEFEFC" transform="translate(405,279)"/>
<path d="M0 0 C2 1 2 1 2 1 Z " fill="#FDFEFE" transform="translate(290,277)"/>
<path d="M0 0 C2 1 2 1 2 1 Z " fill="#FDFFFD" transform="translate(340,275)"/>
<path d="" fill="#FEFEFD" transform="translate(0,0)"/>
<path d="" fill="#FEFEFE" transform="translate(0,0)"/>
<path d="" fill="#FEFEFE" transform="translate(0,0)"/>
<path d="" fill="#FEFEFE" transform="translate(0,0)"/>
<path d="" fill="#FEFEFE" transform="translate(0,0)"/>
<path d="" fill="#FEFEFE" transform="translate(0,0)"/>
<path d="" fill="#FEFEFE" transform="translate(0,0)"/>
<path d="" fill="#FEFEFE" transform="translate(0,0)"/>
<path d="" fill="#FEFEFE" transform="translate(0,0)"/>
<path d="" fill="#FEFEFE" transform="translate(0,0)"/>
<path d="" fill="#FEFEFE" transform="translate(0,0)"/>
<path d="" fill="#FEFEFE" transform="translate(0,0)"/>
<path d="" fill="#FEFEFE" transform="translate(0,0)"/>
<path d="" fill="#FDFDFD" transform="translate(0,0)"/>
<path d="" fill="#FDFDFD" transform="translate(0,0)"/>
<path d="" fill="#FEFEFE" transform="translate(0,0)"/>
<path d="" fill="#FEFEFE" transform="translate(0,0)"/>
<path d="" fill="#FEFEFE" transform="translate(0,0)"/>
<path d="" fill="#FEFEFE" transform="translate(0,0)"/>
<path d="" fill="#FEFEFE" transform="translate(0,0)"/>
<path d="" fill="#FEFEFE" transform="translate(0,0)"/>
<path d="" fill="#FEFEFE" transform="translate(0,0)"/>
<path d="" fill="#FEFEFE" transform="translate(0,0)"/>
<path d="" fill="#FEFEFE" transform="translate(0,0)"/>
<path d="" fill="#FEFEFE" transform="translate(0,0)"/>
<path d="" fill="#FEFEFE" transform="translate(0,0)"/>
<path d="" fill="#FEFEFE" transform="translate(0,0)"/>
<path d="" fill="#FEFEFE" transform="translate(0,0)"/>
<path d="" fill="#FEFEFE" transform="translate(0,0)"/>
<path d="" fill="#FEFEFE" transform="translate(0,0)"/>
<path d="" fill="#FEFEFE" transform="translate(0,0)"/>
<path d="" fill="#FEFEFE" transform="translate(0,0)"/>
<path d="" fill="#FEFEFE" transform="translate(0,0)"/>
<path d="" fill="#FEFEFE" transform="translate(0,0)"/>
<path d="" fill="#FEFEFE" transform="translate(0,0)"/>
<path d="" fill="#FEFEFE" transform="translate(0,0)"/>
<path d="" fill="#FEFEFE" transform="translate(0,0)"/>
<path d="" fill="#FEFEFE" transform="translate(0,0)"/>
<path d="" fill="#FEFEFE" transform="translate(0,0)"/>
<path d="" fill="#FEFEFE" transform="translate(0,0)"/>
<path d="" fill="#FEFEFE" transform="translate(0,0)"/>
<path d="" fill="#FEFEFE" transform="translate(0,0)"/>
<path d="" fill="#FEFEFE" transform="translate(0,0)"/>
<path d="" fill="#FEFEFE" transform="translate(0,0)"/>
<path d="" fill="#FEFEFE" transform="translate(0,0)"/>
<path d="" fill="#FEFEFE" transform="translate(0,0)"/>
<path d="" fill="#FEFEFE" transform="translate(0,0)"/>
<path d="" fill="#FDFEFD" transform="translate(0,0)"/>
<path d="" fill="#FEFEFE" transform="translate(0,0)"/>
<path d="" fill="#FEFEFE" transform="translate(0,0)"/>
<path d="" fill="#FEFEFE" transform="translate(0,0)"/>
<path d="" fill="#FEFEFE" transform="translate(0,0)"/>
<path d="" fill="#FEFEFE" transform="translate(0,0)"/>
<path d="" fill="#FEFFFD" transform="translate(0,0)"/>
<path d="" fill="#FDFFFC" transform="translate(0,0)"/>
<path d="" fill="#FEFEFE" transform="translate(0,0)"/>
<path d="" fill="#FEFEFC" transform="translate(0,0)"/>
<path d="" fill="#FEFEFE" transform="translate(0,0)"/>
<path d="" fill="#FEFEFE" transform="translate(0,0)"/>
<path d="" fill="#FDFDFD" transform="translate(0,0)"/>
<path d="" fill="#FEFEFE" transform="translate(0,0)"/>
<path d="" fill="#FEFEFE" transform="translate(0,0)"/>
<path d="" fill="#FFFEFD" transform="translate(0,0)"/>
<path d="" fill="#FEFEFE" transform="translate(0,0)"/>
<path d="" fill="#FEFEFE" transform="translate(0,0)"/>
<path d="" fill="#FEFEFE" transform="translate(0,0)"/>
<path d="" fill="#FEFEFE" transform="translate(0,0)"/>
<path d="" fill="#FEFDFE" transform="translate(0,0)"/>
<path d="" fill="#FEFDFE" transform="translate(0,0)"/>
<path d="" fill="#FEFEFE" transform="translate(0,0)"/>
<path d="" fill="#FEFEFE" transform="translate(0,0)"/>
<path d="" fill="#FEFDFC" transform="translate(0,0)"/>
<path d="" fill="#FEFFFD" transform="translate(0,0)"/>
<path d="" fill="#FEFFFE" transform="translate(0,0)"/>
<path d="" fill="#FDFDFD" transform="translate(0,0)"/>
<path d="" fill="#FEFFFE" transform="translate(0,0)"/>
<path d="" fill="#FEFFFD" transform="translate(0,0)"/>
<path d="" fill="#FEFFFD" transform="translate(0,0)"/>
<path d="" fill="#FEFFFE" transform="translate(0,0)"/>
<path d="" fill="#FEFEFD" transform="translate(0,0)"/>
<path d="" fill="#FEFEFC" transform="translate(0,0)"/>
</svg>
